Aleo-Bold.ufo
<glyph name="asterisk" format="1">
  <advance width="362"/>
  <unicode hex="002A"/>
  <note>
    asterisk
  </note>
  <outline>
    <contour>
      <point x="152" y="418" type="line"/>
      <point x="210" y="418" type="line"/>
      <point x="210" y="510" type="line" smooth="yes"/>
      <point x="210" y="524"/>
      <point x="208" y="537"/>
      <point x="204" y="548" type="curve"/>
      <point x="208" y="543"/>
      <point x="213" y="539"/>
      <point x="218" y="535" type="curve" smooth="yes"/>
      <point x="223" y="531"/>
      <point x="228" y="528"/>
      <point x="234" y="524" type="curve"/>
      <point x="314" y="478" type="line"/>
      <point x="342" y="528" type="line"/>
      <point x="263" y="574" type="line" smooth="yes"/>
      <point x="250" y="581"/>
      <point x="238" y="586"/>
      <point x="227" y="588" type="curve"/>
      <point x="233" y="589"/>
      <point x="239" y="591"/>
      <point x="245" y="593" type="curve" smooth="yes"/>
      <point x="251" y="595"/>
      <point x="257" y="598"/>
      <point x="263" y="602" type="curve"/>
      <point x="343" y="648" type="line"/>
      <point x="313" y="698" type="line"/>
      <point x="234" y="652" type="line"/>
      <point x="228" y="648"/>
      <point x="223" y="645"/>
      <point x="218" y="641" type="curve" smooth="yes"/>
      <point x="213" y="637"/>
      <point x="209" y="633"/>
      <point x="205" y="628" type="curve"/>
      <point x="207" y="634"/>
      <point x="208" y="640"/>
      <point x="209" y="646" type="curve" smooth="yes"/>
      <point x="210" y="652"/>
      <point x="210" y="659"/>
      <point x="210" y="666" type="curve" smooth="yes"/>
      <point x="210" y="758" type="line"/>
      <point x="152" y="758" type="line"/>
      <point x="152" y="666" type="line" smooth="yes"/>
      <point x="152" y="659"/>
      <point x="152" y="652"/>
      <point x="153" y="646" type="curve" smooth="yes"/>
      <point x="154" y="640"/>
      <point x="156" y="634"/>
      <point x="158" y="628" type="curve"/>
      <point x="154" y="633"/>
      <point x="149" y="637"/>
      <point x="144" y="641" type="curve" smooth="yes"/>
      <point x="139" y="645"/>
      <point x="134" y="648"/>
      <point x="128" y="652" type="curve"/>
      <point x="48" y="699" type="line"/>
      <point x="20" y="649" type="line"/>
      <point x="99" y="602" type="line"/>
      <point x="105" y="598"/>
      <point x="111" y="596"/>
      <point x="117" y="593" type="curve" smooth="yes"/>
      <point x="123" y="590"/>
      <point x="129" y="589"/>
      <point x="135" y="588" type="curve"/>
      <point x="129" y="587"/>
      <point x="123" y="585"/>
      <point x="117" y="583" type="curve" smooth="yes"/>
      <point x="111" y="581"/>
      <point x="105" y="578"/>
      <point x="99" y="574" type="curve"/>
      <point x="20" y="528" type="line"/>
      <point x="49" y="478" type="line"/>
      <point x="128" y="524" type="line"/>
      <point x="134" y="528"/>
      <point x="139" y="531"/>
      <point x="144" y="535" type="curve" smooth="yes"/>
      <point x="149" y="539"/>
      <point x="153" y="543"/>
      <point x="157" y="548" type="curve"/>
      <point x="155" y="542"/>
      <point x="154" y="536"/>
      <point x="153" y="530" type="curve" smooth="yes"/>
      <point x="152" y="524"/>
      <point x="152" y="517"/>
      <point x="152" y="510" type="curve" smooth="yes"/>
    </contour>
  </outline>
</glyph>
<glyph name="plus" format="1">
  <advance width="529"/>
  <unicode hex="002B"/>
  <note>
    plus
  </note>
  <outline>
    <contour>
      <point x="314" y="586" type="line"/>
      <point x="214" y="586" type="line"/>
      <point x="214" y="382" type="line"/>
      <point x="20" y="382" type="line"/>
      <point x="20" y="290" type="line"/>
      <point x="214" y="290" type="line"/>
      <point x="214" y="84" type="line"/>
      <point x="314" y="84" type="line"/>
      <point x="314" y="290" type="line"/>
      <point x="508" y="290" type="line"/>
      <point x="508" y="382" type="line"/>
      <point x="314" y="382" type="line"/>
    </contour>
  </outline>
</glyph>
<glyph name="zero" format="1">
  <advance width="570"/>
  <unicode hex="0030"/>
  <note>
    zero
  </note>
  <outline>
    <contour>
      <point x="550" y="425"/>
      <point x="544" y="480"/>
      <point x="530" y="526" type="curve" smooth="yes"/>
      <point x="516" y="572"/>
      <point x="498" y="611"/>
      <point x="474" y="641" type="curve" smooth="yes"/>
      <point x="450" y="671"/>
      <point x="421" y="694"/>
      <point x="389" y="709" type="curve" smooth="yes"/>
      <point x="357" y="724"/>
      <point x="322" y="731"/>
      <point x="284" y="731" type="curve" smooth="yes"/>
      <point x="246" y="731"/>
      <point x="211" y="724"/>
      <point x="179" y="709" type="curve" smooth="yes"/>
      <point x="147" y="694"/>
      <point x="120" y="671"/>
      <point x="96" y="641" type="curve" smooth="yes"/>
      <point x="72" y="611"/>
      <point x="53" y="572"/>
      <point x="40" y="526" type="curve" smooth="yes"/>
      <point x="27" y="480"/>
      <point x="20" y="425"/>
      <point x="20" y="362" type="curve" smooth="yes"/>
      <point x="20" y="299"/>
      <point x="27" y="243"/>
      <point x="40" y="197" type="curve" smooth="yes"/>
      <point x="53" y="151"/>
      <point x="72" y="112"/>
      <point x="96" y="82" type="curve" smooth="yes"/>
      <point x="120" y="52"/>
      <point x="147" y="29"/>
      <point x="179" y="14" type="curve" smooth="yes"/>
      <point x="211" y="-1"/>
      <point x="246" y="-8"/>
      <point x="284" y="-8" type="curve" smooth="yes"/>
      <point x="322" y="-8"/>
      <point x="357" y="-1"/>
      <point x="389" y="14" type="curve" smooth="yes"/>
      <point x="421" y="29"/>
      <point x="450" y="52"/>
      <point x="474" y="82" type="curve" smooth="yes"/>
      <point x="498" y="112"/>
      <point x="516" y="151"/>
      <point x="530" y="197" type="curve" smooth="yes"/>
      <point x="544" y="243"/>
      <point x="550" y="299"/>
      <point x="550" y="362" type="curve" smooth="yes"/>
    </contour>
    <contour>
      <point x="422" y="310"/>
      <point x="419" y="266"/>
      <point x="411" y="232" type="curve" smooth="yes"/>
      <point x="403" y="198"/>
      <point x="393" y="169"/>
      <point x="380" y="149" type="curve" smooth="yes"/>
      <point x="367" y="129"/>
      <point x="353" y="115"/>
      <point x="336" y="107" type="curve" smooth="yes"/>
      <point x="319" y="99"/>
      <point x="302" y="94"/>
      <point x="284" y="94" type="curve" smooth="yes"/>
      <point x="266" y="94"/>
      <point x="249" y="99"/>
      <point x="233" y="107" type="curve" smooth="yes"/>
      <point x="217" y="115"/>
      <point x="202" y="130"/>
      <point x="189" y="150" type="curve" smooth="yes"/>
      <point x="176" y="170"/>
      <point x="167" y="198"/>
      <point x="159" y="232" type="curve" smooth="yes"/>
      <point x="151" y="266"/>
      <point x="147" y="310"/>
      <point x="147" y="362" type="curve" smooth="yes"/>
      <point x="147" y="414"/>
      <point x="151" y="458"/>
      <point x="159" y="492" type="curve" smooth="yes"/>
      <point x="167" y="526"/>
      <point x="176" y="554"/>
      <point x="189" y="574" type="curve" smooth="yes"/>
      <point x="202" y="594"/>
      <point x="217" y="608"/>
      <point x="233" y="616" type="curve" smooth="yes"/>
      <point x="249" y="624"/>
      <point x="266" y="628"/>
      <point x="284" y="628" type="curve" smooth="yes"/>
      <point x="302" y="628"/>
      <point x="319" y="624"/>
      <point x="336" y="616" type="curve" smooth="yes"/>
      <point x="353" y="608"/>
      <point x="367" y="594"/>
      <point x="380" y="574" type="curve" smooth="yes"/>
      <point x="393" y="554"/>
      <point x="403" y="526"/>
      <point x="411" y="492" type="curve" smooth="yes"/>
      <point x="419" y="458"/>
      <point x="422" y="414"/>
      <point x="422" y="362" type="curve" smooth="yes"/>
    </contour>
  </outline>
</glyph>
<glyph name="two" format="1">
  <advance width="542"/>
  <unicode hex="0032"/>
  <note>
    two
  </note>
  <outline>
    <contour>
      <point x="524" y="108" type="line"/>
      <point x="524" y="178" type="line"/>
      <point x="471" y="178" type="line" smooth="yes"/>
      <point x="458" y="178"/>
      <point x="451" y="172"/>
      <point x="448" y="160" type="curve" smooth="yes"/>
      <point x="447" y="156"/>
      <point x="446" y="141"/>
      <point x="444" y="115" type="curve"/>
      <point x="284" y="115" type="line" smooth="yes"/>
      <point x="270" y="115"/>
      <point x="255" y="113"/>
      <point x="240" y="111" type="curve"/>
      <point x="225" y="108"/>
      <point x="209" y="105"/>
      <point x="193" y="100" type="curve"/>
      <point x="356" y="267" type="line" smooth="yes"/>
      <point x="375" y="287"/>
      <point x="394" y="307"/>
      <point x="412" y="326" type="curve" smooth="yes"/>
      <point x="430" y="345"/>
      <point x="445" y="365"/>
      <point x="458" y="386" type="curve" smooth="yes"/>
      <point x="471" y="407"/>
      <point x="481" y="428"/>
      <point x="489" y="451" type="curve" smooth="yes"/>
      <point x="497" y="474"/>
      <point x="501" y="498"/>
      <point x="501" y="525" type="curve" smooth="yes"/>
      <point x="501" y="556"/>
      <point x="495" y="584"/>
      <point x="484" y="609" type="curve" smooth="yes"/>
      <point x="473" y="634"/>
      <point x="458" y="656"/>
      <point x="438" y="674" type="curve" smooth="yes"/>
      <point x="418" y="692"/>
      <point x="396" y="706"/>
      <point x="368" y="716" type="curve" smooth="yes"/>
      <point x="340" y="726"/>
      <point x="309" y="731"/>
      <point x="276" y="731" type="curve" smooth="yes"/>
      <point x="244" y="731"/>
      <point x="214" y="727"/>
      <point x="186" y="718" type="curve" smooth="yes"/>
      <point x="158" y="709"/>
      <point x="133" y="696"/>
      <point x="112" y="678" type="curve" smooth="yes"/>
      <point x="90" y="660"/>
      <point x="73" y="639"/>
      <point x="59" y="613" type="curve" smooth="yes"/>
      <point x="45" y="587"/>
      <point x="35" y="556"/>
      <point x="30" y="521" type="curve"/>
      <point x="95" y="510" type="line" smooth="yes"/>
      <point x="101" y="509"/>
      <point x="106" y="508"/>
      <point x="111" y="508" type="curve" smooth="yes"/>
      <point x="122" y="508"/>
      <point x="132" y="511"/>
      <point x="139" y="517" type="curve"/>
      <point x="146" y="522"/>
      <point x="152" y="531"/>
      <point x="156" y="544" type="curve" smooth="yes"/>
      <point x="164" y="569"/>
      <point x="177" y="589"/>
      <point x="196" y="604" type="curve" smooth="yes"/>
      <point x="215" y="619"/>
      <point x="239" y="627"/>
      <point x="269" y="627" type="curve" smooth="yes"/>
      <point x="285" y="627"/>
      <point x="299" y="624"/>
      <point x="312" y="620" type="curve" smooth="yes"/>
      <point x="325" y="616"/>
      <point x="336" y="609"/>
      <point x="345" y="600" type="curve" smooth="yes"/>
      <point x="354" y="591"/>
      <point x="362" y="580"/>
      <point x="367" y="567" type="curve" smooth="yes"/>
      <point x="372" y="554"/>
      <point x="374" y="538"/>
      <point x="374" y="521" type="curve" smooth="yes"/>
      <point x="374" y="502"/>
      <point x="372" y="484"/>
      <point x="367" y="467" type="curve" smooth="yes"/>
      <point x="362" y="450"/>
      <point x="354" y="433"/>
      <point x="344" y="416" type="curve" smooth="yes"/>
      <point x="334" y="399"/>
      <point x="322" y="382"/>
      <point x="308" y="365" type="curve" smooth="yes"/>
      <point x="294" y="348"/>
      <point x="276" y="331"/>
      <point x="258" y="312" type="curve" smooth="yes"/>
      <point x="39" y="92" type="line" smooth="yes"/>
      <point x="31" y="84"/>
      <point x="26" y="76"/>
      <point x="22" y="67" type="curve"/>
      <point x="19" y="58"/>
      <point x="17" y="49"/>
      <point x="17" y="41" type="curve" smooth="yes"/>
      <point x="17" y="0" type="line"/>
      <point x="484" y="0" type="line"/>
      <point x="513" y="0" type="line"/>
      <point x="524" y="0" type="line"/>
    </contour>
  </outline>
</glyph>
<glyph name="seven" format="1">
  <advance width="538"/>
  <unicode hex="0037"/>
  <note>
    seven
  </note>
  <outline>
    <contour>
      <point x="20" y="723" type="line"/>
      <point x="20" y="639" type="line"/>
      <point x="20" y="638" type="line"/>
      <point x="20" y="637" type="line"/>
      <point x="20" y="530" type="line"/>
      <point x="73" y="530" type="line" smooth="yes"/>
      <point x="86" y="530"/>
      <point x="94" y="536"/>
      <point x="97" y="548" type="curve"/>
      <point x="99" y="558"/>
      <point x="100" y="579"/>
      <point x="103" y="611" type="curve"/>
      <point x="394" y="611" type="line"/>
      <point x="380" y="595"/>
      <point x="367" y="575"/>
      <point x="355" y="552" type="curve" smooth="yes"/>
      <point x="75" y="0" type="line"/>
      <point x="165" y="0" type="line" smooth="yes"/>
      <point x="183" y="0"/>
      <point x="197" y="4"/>
      <point x="207" y="12" type="curve" smooth="yes"/>
      <point x="217" y="20"/>
      <point x="225" y="30"/>
      <point x="231" y="42" type="curve" smooth="yes"/>
      <point x="504" y="606" type="line"/>
      <point x="507" y="613"/>
      <point x="512" y="621"/>
      <point x="515" y="631" type="curve" smooth="yes"/>
      <point x="518" y="641"/>
      <point x="520" y="654"/>
      <point x="520" y="670" type="curve" smooth="yes"/>
      <point x="520" y="723" type="line"/>
    </contour>
  </outline>
</glyph>
<glyph name="F" format="1">
  <advance width="593"/>
  <unicode hex="0046"/>
  <note>
    F
  </note>
  <outline>
    <contour>
      <point x="552" y="723" type="line"/>
      <point x="529" y="723" type="line"/>
      <point x="96" y="723" type="line"/>
      <point x="20" y="723" type="line"/>
      <point x="20" y="664" type="line" smooth="yes"/>
      <point x="20" y="647"/>
      <point x="28" y="637"/>
      <point x="45" y="633" type="curve"/>
      <point x="46" y="633"/>
      <point x="48" y="633"/>
      <point x="51" y="632" type="curve"/>
      <point x="54" y="632"/>
      <point x="59" y="630"/>
      <point x="66" y="629" type="curve" smooth="yes"/>
      <point x="73" y="628"/>
      <point x="84" y="626"/>
      <point x="96" y="624" type="curve"/>
      <point x="96" y="99" type="line"/>
      <point x="84" y="97"/>
      <point x="73" y="95"/>
      <point x="66" y="94" type="curve" smooth="yes"/>
      <point x="59" y="93"/>
      <point x="54" y="91"/>
      <point x="51" y="91" type="curve" smooth="yes"/>
      <point x="48" y="91"/>
      <point x="46" y="90"/>
      <point x="45" y="90" type="curve"/>
      <point x="28" y="86"/>
      <point x="20" y="76"/>
      <point x="20" y="59" type="curve" smooth="yes"/>
      <point x="20" y="0" type="line"/>
      <point x="96" y="0" type="line"/>
      <point x="231" y="0" type="line"/>
      <point x="307" y="0" type="line"/>
      <point x="307" y="59" type="line" smooth="yes"/>
      <point x="307" y="76"/>
      <point x="299" y="86"/>
      <point x="282" y="90" type="curve"/>
      <point x="281" y="90"/>
      <point x="279" y="91"/>
      <point x="276" y="91" type="curve" smooth="yes"/>
      <point x="273" y="91"/>
      <point x="268" y="93"/>
      <point x="261" y="94" type="curve" smooth="yes"/>
      <point x="254" y="95"/>
      <point x="243" y="97"/>
      <point x="231" y="99" type="curve"/>
      <point x="231" y="295" type="line"/>
      <point x="484" y="295" type="line"/>
      <point x="484" y="402" type="line"/>
      <point x="231" y="402" type="line"/>
      <point x="231" y="616" type="line"/>
      <point x="489" y="616" type="line"/>
      <point x="492" y="581"/>
      <point x="495" y="560"/>
      <point x="496" y="552" type="curve"/>
      <point x="499" y="540"/>
      <point x="506" y="533"/>
      <point x="519" y="533" type="curve" smooth="yes"/>
      <point x="561" y="533" type="line"/>
      <point x="573" y="533" type="line"/>
      <point x="577" y="533" type="line"/>
      <point x="577" y="630" type="line"/>
      <point x="577" y="653" type="line"/>
      <point x="577" y="723" type="line"/>
    </contour>
    <contour>
      <point x="297" y="723" type="move" name="top"/>
    </contour>
    <contour>
      <point x="297" y="0" type="move" name="bottom"/>
    </contour>
  </outline>
</glyph>
<glyph name="X" format="1">
  <advance width="779"/>
  <unicode hex="0058"/>
  <note>
    X
  </note>
  <outline>
    <contour>
      <point x="729" y="91"/>
      <point x="704" y="94"/>
      <point x="659" y="99" type="curve"/>
      <point x="483" y="378" type="line"/>
      <point x="649" y="624" type="line"/>
      <point x="694" y="629"/>
      <point x="719" y="632"/>
      <point x="725" y="633" type="curve"/>
      <point x="742" y="637"/>
      <point x="750" y="647"/>
      <point x="750" y="664" type="curve" smooth="yes"/>
      <point x="750" y="723" type="line"/>
      <point x="716" y="723" type="line"/>
      <point x="681" y="723" type="line"/>
      <point x="670" y="723" type="line"/>
      <point x="587" y="723" type="line"/>
      <point x="445" y="723" type="line"/>
      <point x="445" y="664" type="line" smooth="yes"/>
      <point x="445" y="647"/>
      <point x="453" y="637"/>
      <point x="470" y="633" type="curve" smooth="yes"/>
      <point x="487" y="629"/>
      <point x="500" y="627"/>
      <point x="508" y="625" type="curve"/>
      <point x="408" y="467" type="line"/>
      <point x="405" y="463"/>
      <point x="403" y="458"/>
      <point x="401" y="454" type="curve" smooth="yes"/>
      <point x="399" y="450"/>
      <point x="397" y="445"/>
      <point x="395" y="441" type="curve"/>
      <point x="281" y="626" type="line"/>
      <point x="287" y="627"/>
      <point x="298" y="630"/>
      <point x="314" y="633" type="curve"/>
      <point x="331" y="637"/>
      <point x="339" y="647"/>
      <point x="339" y="664" type="curve" smooth="yes"/>
      <point x="339" y="723" type="line"/>
      <point x="199" y="723" type="line"/>
      <point x="108" y="723" type="line"/>
      <point x="103" y="723" type="line"/>
      <point x="65" y="723" type="line"/>
      <point x="28" y="723" type="line"/>
      <point x="28" y="664" type="line" smooth="yes"/>
      <point x="28" y="647"/>
      <point x="36" y="637"/>
      <point x="53" y="633" type="curve" smooth="yes"/>
      <point x="58" y="632"/>
      <point x="84" y="629"/>
      <point x="130" y="624" type="curve"/>
      <point x="296" y="372" type="line"/>
      <point x="119" y="99" type="line"/>
      <point x="74" y="94"/>
      <point x="49" y="91"/>
      <point x="44" y="90" type="curve" smooth="yes"/>
      <point x="27" y="86"/>
      <point x="18" y="76"/>
      <point x="18" y="59" type="curve" smooth="yes"/>
      <point x="18" y="0" type="line"/>
      <point x="55" y="0" type="line"/>
      <point x="93" y="0" type="line"/>
      <point x="99" y="0" type="line"/>
      <point x="181" y="0" type="line"/>
      <point x="329" y="0" type="line"/>
      <point x="329" y="59" type="line" smooth="yes"/>
      <point x="329" y="76"/>
      <point x="321" y="86"/>
      <point x="304" y="90" type="curve" smooth="yes"/>
      <point x="287" y="94"/>
      <point x="272" y="97"/>
      <point x="262" y="99" type="curve"/>
      <point x="375" y="279" type="line" smooth="yes"/>
      <point x="377" y="282"/>
      <point x="378" y="285"/>
      <point x="380" y="289" type="curve"/>
      <point x="382" y="292"/>
      <point x="384" y="296"/>
      <point x="385" y="300" type="curve"/>
      <point x="508" y="96" type="line"/>
      <point x="504" y="95"/>
      <point x="493" y="93"/>
      <point x="478" y="90" type="curve" smooth="yes"/>
      <point x="461" y="86"/>
      <point x="453" y="76"/>
      <point x="453" y="59" type="curve" smooth="yes"/>
      <point x="453" y="0" type="line"/>
      <point x="588" y="0" type="line"/>
      <point x="680" y="0" type="line"/>
      <point x="689" y="0" type="line"/>
      <point x="722" y="0" type="line"/>
      <point x="760" y="0" type="line"/>
      <point x="760" y="59" type="line" smooth="yes"/>
      <point x="760" y="76"/>
      <point x="752" y="86"/>
      <point x="735" y="90" type="curve"/>
    </contour>
    <contour>
      <point x="390" y="723" type="move" name="top"/>
    </contour>
    <contour>
      <point x="390" y="0" type="move" name="bottom"/>
    </contour>
  </outline>
</glyph>
<glyph name="backslash" format="1">
  <advance width="437"/>
  <unicode hex="005C"/>
  <note>
    backslash
  </note>
  <outline>
    <contour>
      <point x="15" y="743" type="line"/>
      <point x="305" y="-2" type="line" smooth="yes"/>
      <point x="311" y="-17"/>
      <point x="320" y="-28"/>
      <point x="332" y="-36" type="curve" smooth="yes"/>
      <point x="344" y="-44"/>
      <point x="357" y="-48"/>
      <point x="370" y="-48" type="curve" smooth="yes"/>
      <point x="422" y="-48" type="line"/>
      <point x="131" y="700" type="line" smooth="yes"/>
      <point x="125" y="714"/>
      <point x="117" y="724"/>
      <point x="106" y="732" type="curve" smooth="yes"/>
      <point x="95" y="740"/>
      <point x="83" y="743"/>
      <point x="68" y="743" type="curve" smooth="yes"/>
    </contour>
  </outline>
</glyph>
<glyph name="bracketright" format="1">
  <advance width="247"/>
  <unicode hex="005D"/>
  <note>
    bracketright
  </note>
  <outline>
    <contour>
      <point x="16" y="-154" type="line"/>
      <point x="220" y="-154" type="line"/>
      <point x="220" y="774" type="line"/>
      <point x="16" y="774" type="line"/>
      <point x="16" y="725" type="line" smooth="yes"/>
      <point x="16" y="716"/>
      <point x="19" y="709"/>
      <point x="25" y="703" type="curve" smooth="yes"/>
      <point x="31" y="697"/>
      <point x="38" y="694"/>
      <point x="48" y="694" type="curve" smooth="yes"/>
      <point x="118" y="694" type="line"/>
      <point x="118" y="-74" type="line"/>
      <point x="48" y="-74" type="line" smooth="yes"/>
      <point x="38" y="-74"/>
      <point x="31" y="-77"/>
      <point x="25" y="-83" type="curve" smooth="yes"/>
      <point x="19" y="-89"/>
      <point x="16" y="-97"/>
      <point x="16" y="-106" type="curve" smooth="yes"/>
    </contour>
  </outline>
</glyph>
<glyph name="asciicircum" format="1">
  <advance width="490"/>
  <unicode hex="005E"/>
  <note>
    asciicircum
  </note>
  <outline>
    <contour>
      <point x="472" y="388" type="line"/>
      <point x="285" y="723" type="line"/>
      <point x="205" y="723" type="line"/>
      <point x="18" y="388" type="line"/>
      <point x="114" y="388" type="line" smooth="yes"/>
      <point x="123" y="388"/>
      <point x="129" y="390"/>
      <point x="134" y="394" type="curve" smooth="yes"/>
      <point x="139" y="398"/>
      <point x="143" y="403"/>
      <point x="146" y="409" type="curve" smooth="yes"/>
      <point x="224" y="554" type="line" smooth="yes"/>
      <point x="229" y="563"/>
      <point x="233" y="572"/>
      <point x="237" y="580" type="curve" smooth="yes"/>
      <point x="241" y="588"/>
      <point x="243" y="597"/>
      <point x="246" y="606" type="curve"/>
      <point x="249" y="597"/>
      <point x="253" y="588"/>
      <point x="257" y="580" type="curve" smooth="yes"/>
      <point x="261" y="572"/>
      <point x="265" y="563"/>
      <point x="270" y="554" type="curve" smooth="yes"/>
      <point x="350" y="409" type="line"/>
      <point x="353" y="403"/>
      <point x="357" y="398"/>
      <point x="362" y="394" type="curve" smooth="yes"/>
      <point x="367" y="390"/>
      <point x="373" y="388"/>
      <point x="381" y="388" type="curve" smooth="yes"/>
    </contour>
  </outline>
</glyph>
<glyph name="p" format="1">
  <advance width="577"/>
  <unicode hex="0070"/>
  <note>
    p
  </note>
  <outline>
    <contour>
      <point x="538" y="404"/>
      <point x="525" y="432"/>
      <point x="508" y="454" type="curve" smooth="yes"/>
      <point x="491" y="476"/>
      <point x="471" y="493"/>
      <point x="448" y="505" type="curve" smooth="yes"/>
      <point x="425" y="517"/>
      <point x="399" y="522"/>
      <point x="371" y="522" type="curve" smooth="yes"/>
      <point x="335" y="522"/>
      <point x="304" y="515"/>
      <point x="277" y="500" type="curve" smooth="yes"/>
      <point x="250" y="485"/>
      <point x="227" y="467"/>
      <point x="206" y="443" type="curve"/>
      <point x="196" y="490" type="line"/>
      <point x="194" y="498"/>
      <point x="191" y="503"/>
      <point x="185" y="507" type="curve" smooth="yes"/>
      <point x="179" y="511"/>
      <point x="172" y="513"/>
      <point x="164" y="513" type="curve" smooth="yes"/>
      <point x="89" y="513" type="line"/>
      <point x="13" y="513" type="line"/>
      <point x="13" y="454" type="line" smooth="yes"/>
      <point x="13" y="437"/>
      <point x="21" y="427"/>
      <point x="38" y="423" type="curve"/>
      <point x="39" y="423"/>
      <point x="41" y="422"/>
      <point x="44" y="422" type="curve" smooth="yes"/>
      <point x="47" y="422"/>
      <point x="52" y="420"/>
      <point x="59" y="419" type="curve" smooth="yes"/>
      <point x="66" y="418"/>
      <point x="77" y="416"/>
      <point x="89" y="414" type="curve"/>
      <point x="89" y="-68" type="line"/>
      <point x="77" y="-70"/>
      <point x="66" y="-73"/>
      <point x="59" y="-74" type="curve" smooth="yes"/>
      <point x="52" y="-75"/>
      <point x="47" y="-76"/>
      <point x="44" y="-76" type="curve" smooth="yes"/>
      <point x="41" y="-76"/>
      <point x="39" y="-77"/>
      <point x="38" y="-77" type="curve"/>
      <point x="21" y="-81"/>
      <point x="13" y="-92"/>
      <point x="13" y="-109" type="curve" smooth="yes"/>
      <point x="13" y="-167" type="line"/>
      <point x="89" y="-167" type="line"/>
      <point x="212" y="-167" type="line"/>
      <point x="288" y="-167" type="line"/>
      <point x="288" y="-109" type="line" smooth="yes"/>
      <point x="288" y="-92"/>
      <point x="280" y="-81"/>
      <point x="263" y="-77" type="curve"/>
      <point x="262" y="-77"/>
      <point x="260" y="-77"/>
      <point x="257" y="-76" type="curve" smooth="yes"/>
      <point x="254" y="-75"/>
      <point x="249" y="-75"/>
      <point x="242" y="-74" type="curve" smooth="yes"/>
      <point x="235" y="-73"/>
      <point x="225" y="-70"/>
      <point x="212" y="-68" type="curve"/>
      <point x="212" y="43" type="line"/>
      <point x="228" y="27"/>
      <point x="247" y="15"/>
      <point x="267" y="6" type="curve" smooth="yes"/>
      <point x="287" y="-3"/>
      <point x="311" y="-7"/>
      <point x="340" y="-7" type="curve" smooth="yes"/>
      <point x="374" y="-7"/>
      <point x="405" y="-1"/>
      <point x="432" y="13" type="curve" smooth="yes"/>
      <point x="459" y="27"/>
      <point x="482" y="45"/>
      <point x="501" y="69" type="curve" smooth="yes"/>
      <point x="520" y="93"/>
      <point x="535" y="121"/>
      <point x="545" y="154" type="curve" smooth="yes"/>
      <point x="555" y="187"/>
      <point x="561" y="223"/>
      <point x="561" y="261" type="curve" smooth="yes"/>
      <point x="561" y="303"/>
      <point x="556" y="339"/>
      <point x="547" y="372" type="curve" smooth="yes"/>
    </contour>
    <contour>
      <point x="419" y="161"/>
      <point x="410" y="143"/>
      <point x="400" y="129" type="curve"/>
      <point x="389" y="115"/>
      <point x="377" y="104"/>
      <point x="362" y="97" type="curve" smooth="yes"/>
      <point x="347" y="90"/>
      <point x="330" y="87"/>
      <point x="311" y="87" type="curve" smooth="yes"/>
      <point x="292" y="87"/>
      <point x="274" y="90"/>
      <point x="258" y="97" type="curve" smooth="yes"/>
      <point x="242" y="104"/>
      <point x="226" y="116"/>
      <point x="212" y="133" type="curve"/>
      <point x="212" y="363" type="line"/>
      <point x="228" y="383"/>
      <point x="245" y="398"/>
      <point x="263" y="409" type="curve" smooth="yes"/>
      <point x="281" y="420"/>
      <point x="303" y="425"/>
      <point x="329" y="425" type="curve" smooth="yes"/>
      <point x="345" y="425"/>
      <point x="359" y="422"/>
      <point x="372" y="416" type="curve" smooth="yes"/>
      <point x="385" y="410"/>
      <point x="396" y="400"/>
      <point x="405" y="387" type="curve" smooth="yes"/>
      <point x="414" y="374"/>
      <point x="421" y="358"/>
      <point x="426" y="337" type="curve" smooth="yes"/>
      <point x="431" y="316"/>
      <point x="433" y="290"/>
      <point x="433" y="260" type="curve" smooth="yes"/>
      <point x="433" y="230"/>
      <point x="431" y="205"/>
      <point x="425" y="183" type="curve" smooth="yes"/>
    </contour>
    <contour>
      <point x="289" y="513" type="move" name="top"/>
    </contour>
    <contour>
      <point x="289" y="0" type="move" name="bottom"/>
    </contour>
  </outline>
</glyph>
<glyph name="t" format="1">
  <advance width="374"/>
  <unicode hex="0074"/>
  <note>
    t
  </note>
  <outline>
    <contour>
      <point x="253" y="-8"/>
      <point x="277" y="-4"/>
      <point x="300" y="4" type="curve" smooth="yes"/>
      <point x="323" y="12"/>
      <point x="344" y="23"/>
      <point x="362" y="38" type="curve"/>
      <point x="325" y="98" type="line"/>
      <point x="322" y="102"/>
      <point x="320" y="104"/>
      <point x="318" y="106" type="curve" smooth="yes"/>
      <point x="316" y="108"/>
      <point x="312" y="108"/>
      <point x="308" y="108" type="curve" smooth="yes"/>
      <point x="305" y="108"/>
      <point x="303" y="108"/>
      <point x="300" y="106" type="curve" smooth="yes"/>
      <point x="297" y="104"/>
      <point x="293" y="102"/>
      <point x="289" y="100" type="curve" smooth="yes"/>
      <point x="285" y="98"/>
      <point x="281" y="96"/>
      <point x="276" y="94" type="curve" smooth="yes"/>
      <point x="271" y="92"/>
      <point x="265" y="92"/>
      <point x="257" y="92" type="curve" smooth="yes"/>
      <point x="244" y="92"/>
      <point x="233" y="96"/>
      <point x="225" y="105" type="curve" smooth="yes"/>
      <point x="217" y="114"/>
      <point x="213" y="126"/>
      <point x="213" y="142" type="curve" smooth="yes"/>
      <point x="213" y="420" type="line"/>
      <point x="348" y="420" type="line"/>
      <point x="348" y="508" type="line"/>
      <point x="213" y="508" type="line"/>
      <point x="213" y="670" type="line"/>
      <point x="149" y="670" type="line" smooth="yes"/>
      <point x="142" y="670"/>
      <point x="135" y="668"/>
      <point x="130" y="664" type="curve" smooth="yes"/>
      <point x="125" y="660"/>
      <point x="122" y="656"/>
      <point x="121" y="649" type="curve"/>
      <point x="95" y="509" type="line"/>
      <point x="12" y="496" type="line"/>
      <point x="12" y="446" type="line" smooth="yes"/>
      <point x="12" y="437"/>
      <point x="15" y="431"/>
      <point x="20" y="427" type="curve" smooth="yes"/>
      <point x="25" y="423"/>
      <point x="30" y="420"/>
      <point x="37" y="420" type="curve" smooth="yes"/>
      <point x="89" y="420" type="line"/>
      <point x="89" y="134" type="line" smooth="yes"/>
      <point x="89" y="90"/>
      <point x="101" y="55"/>
      <point x="125" y="30" type="curve" smooth="yes"/>
      <point x="149" y="5"/>
      <point x="184" y="-8"/>
      <point x="228" y="-8" type="curve" smooth="yes"/>
    </contour>
    <contour>
      <point x="187" y="0" type="move" name="bottom"/>
    </contour>
    <contour>
      <point x="187" y="513" type="move" name="top"/>
    </contour>
    <contour>
      <point x="354" y="513" type="move" name="topright"/>
    </contour>
    <contour>
      <point x="187" y="257" type="move" name="center"/>
    </contour>
  </outline>
</glyph>
<glyph name="currency" format="1">
  <advance width="505"/>
  <unicode hex="00A4"/>
  <note>
    currency
  </note>
  <outline>
    <contour>
      <point x="68" y="318"/>
      <point x="71" y="301"/>
      <point x="76" y="285" type="curve" smooth="yes"/>
      <point x="81" y="269"/>
      <point x="87" y="253"/>
      <point x="96" y="239" type="curve"/>
      <point x="20" y="164" type="line"/>
      <point x="82" y="102" type="line"/>
      <point x="158" y="178" type="line"/>
      <point x="172" y="170"/>
      <point x="187" y="163"/>
      <point x="203" y="159" type="curve" smooth="yes"/>
      <point x="219" y="155"/>
      <point x="236" y="152"/>
      <point x="253" y="152" type="curve" smooth="yes"/>
      <point x="271" y="152"/>
      <point x="288" y="155"/>
      <point x="304" y="160" type="curve" smooth="yes"/>
      <point x="320" y="165"/>
      <point x="336" y="171"/>
      <point x="350" y="180" type="curve"/>
      <point x="426" y="104" type="line"/>
      <point x="488" y="166" type="line"/>
      <point x="412" y="242" type="line"/>
      <point x="420" y="256"/>
      <point x="427" y="270"/>
      <point x="431" y="286" type="curve" smooth="yes"/>
      <point x="435" y="302"/>
      <point x="438" y="318"/>
      <point x="438" y="336" type="curve" smooth="yes"/>
      <point x="438" y="354"/>
      <point x="435" y="372"/>
      <point x="430" y="388" type="curve" smooth="yes"/>
      <point x="425" y="404"/>
      <point x="419" y="420"/>
      <point x="410" y="434" type="curve"/>
      <point x="486" y="510" type="line"/>
      <point x="424" y="571" type="line"/>
      <point x="348" y="495" type="line"/>
      <point x="334" y="503"/>
      <point x="319" y="510"/>
      <point x="303" y="514" type="curve" smooth="yes"/>
      <point x="287" y="518"/>
      <point x="270" y="521"/>
      <point x="253" y="521" type="curve" smooth="yes"/>
      <point x="235" y="521"/>
      <point x="218" y="519"/>
      <point x="202" y="514" type="curve" smooth="yes"/>
      <point x="186" y="509"/>
      <point x="170" y="503"/>
      <point x="156" y="494" type="curve"/>
      <point x="80" y="568" type="line"/>
      <point x="18" y="508" type="line"/>
      <point x="94" y="432" type="line"/>
      <point x="86" y="418"/>
      <point x="79" y="403"/>
      <point x="75" y="387" type="curve" smooth="yes"/>
      <point x="71" y="371"/>
      <point x="68" y="354"/>
      <point x="68" y="336" type="curve" smooth="yes"/>
    </contour>
    <contour>
      <point x="160" y="349"/>
      <point x="162" y="362"/>
      <point x="167" y="374" type="curve" smooth="yes"/>
      <point x="172" y="386"/>
      <point x="179" y="396"/>
      <point x="187" y="404" type="curve" smooth="yes"/>
      <point x="195" y="412"/>
      <point x="205" y="419"/>
      <point x="216" y="424" type="curve" smooth="yes"/>
      <point x="227" y="429"/>
      <point x="240" y="432"/>
      <point x="253" y="432" type="curve" smooth="yes"/>
      <point x="266" y="432"/>
      <point x="278" y="429"/>
      <point x="290" y="424" type="curve" smooth="yes"/>
      <point x="302" y="419"/>
      <point x="312" y="412"/>
      <point x="320" y="404" type="curve" smooth="yes"/>
      <point x="328" y="396"/>
      <point x="335" y="386"/>
      <point x="340" y="374" type="curve" smooth="yes"/>
      <point x="345" y="362"/>
      <point x="347" y="349"/>
      <point x="347" y="336" type="curve" smooth="yes"/>
      <point x="347" y="323"/>
      <point x="345" y="312"/>
      <point x="340" y="300" type="curve" smooth="yes"/>
      <point x="335" y="288"/>
      <point x="328" y="278"/>
      <point x="320" y="270" type="curve" smooth="yes"/>
      <point x="312" y="262"/>
      <point x="302" y="255"/>
      <point x="290" y="250" type="curve" smooth="yes"/>
      <point x="278" y="245"/>
      <point x="266" y="242"/>
      <point x="253" y="242" type="curve" smooth="yes"/>
      <point x="240" y="242"/>
      <point x="227" y="245"/>
      <point x="216" y="250" type="curve" smooth="yes"/>
      <point x="205" y="255"/>
      <point x="195" y="262"/>
      <point x="187" y="270" type="curve" smooth="yes"/>
      <point x="179" y="278"/>
      <point x="172" y="288"/>
      <point x="167" y="300" type="curve" smooth="yes"/>
      <point x="162" y="312"/>
      <point x="160" y="323"/>
      <point x="160" y="336" type="curve" smooth="yes"/>
    </contour>
  </outline>
</glyph>
<glyph name="yen" format="1">
  <advance width="596"/>
  <unicode hex="00A5"/>
  <note>
    yen
  </note>
  <outline>
    <contour>
      <point x="76" y="316" type="line"/>
      <point x="76" y="248" type="line"/>
      <point x="236" y="248" type="line"/>
      <point x="236" y="200" type="line"/>
      <point x="76" y="200" type="line"/>
      <point x="76" y="132" type="line"/>
      <point x="236" y="132" type="line"/>
      <point x="236" y="0" type="line"/>
      <point x="360" y="0" type="line"/>
      <point x="360" y="132" type="line"/>
      <point x="520" y="132" type="line"/>
      <point x="520" y="200" type="line"/>
      <point x="360" y="200" type="line"/>
      <point x="360" y="248" type="line"/>
      <point x="520" y="248" type="line"/>
      <point x="520" y="316" type="line"/>
      <point x="382" y="316" type="line"/>
      <point x="581" y="723" type="line"/>
      <point x="478" y="723" type="line" smooth="yes"/>
      <point x="467" y="723"/>
      <point x="457" y="720"/>
      <point x="450" y="714" type="curve" smooth="yes"/>
      <point x="443" y="708"/>
      <point x="437" y="701"/>
      <point x="433" y="693" type="curve"/>
      <point x="324" y="449" type="line" smooth="yes"/>
      <point x="317" y="434"/>
      <point x="313" y="421"/>
      <point x="309" y="408" type="curve" smooth="yes"/>
      <point x="305" y="395"/>
      <point x="302" y="382"/>
      <point x="299" y="370" type="curve"/>
      <point x="296" y="382"/>
      <point x="293" y="395"/>
      <point x="289" y="408" type="curve" smooth="yes"/>
      <point x="285" y="421"/>
      <point x="280" y="434"/>
      <point x="273" y="449" type="curve" smooth="yes"/>
      <point x="164" y="693" type="line" smooth="yes"/>
      <point x="160" y="702"/>
      <point x="153" y="709"/>
      <point x="146" y="715" type="curve" smooth="yes"/>
      <point x="139" y="721"/>
      <point x="130" y="723"/>
      <point x="118" y="723" type="curve" smooth="yes"/>
      <point x="16" y="723" type="line"/>
      <point x="214" y="316" type="line"/>
    </contour>
  </outline>
</glyph>
<glyph name="registered" format="1">
  <advance width="775"/>
  <unicode hex="00AE"/>
  <note>
    registered
  </note>
  <outline>
    <contour>
      <point x="18" y="328"/>
      <point x="23" y="295"/>
      <point x="32" y="264" type="curve" smooth="yes"/>
      <point x="41" y="233"/>
      <point x="53" y="203"/>
      <point x="69" y="176" type="curve" smooth="yes"/>
      <point x="85" y="149"/>
      <point x="105" y="123"/>
      <point x="127" y="101" type="curve" smooth="yes"/>
      <point x="149" y="79"/>
      <point x="175" y="60"/>
      <point x="202" y="44" type="curve" smooth="yes"/>
      <point x="229" y="28"/>
      <point x="259" y="15"/>
      <point x="290" y="6" type="curve" smooth="yes"/>
      <point x="321" y="-3"/>
      <point x="354" y="-7"/>
      <point x="388" y="-7" type="curve" smooth="yes"/>
      <point x="422" y="-7"/>
      <point x="454" y="-3"/>
      <point x="486" y="6" type="curve" smooth="yes"/>
      <point x="518" y="15"/>
      <point x="547" y="28"/>
      <point x="574" y="44" type="curve" smooth="yes"/>
      <point x="601" y="60"/>
      <point x="627" y="79"/>
      <point x="649" y="101" type="curve" smooth="yes"/>
      <point x="671" y="123"/>
      <point x="690" y="149"/>
      <point x="706" y="176" type="curve" smooth="yes"/>
      <point x="722" y="203"/>
      <point x="735" y="232"/>
      <point x="744" y="264" type="curve" smooth="yes"/>
      <point x="753" y="296"/>
      <point x="757" y="328"/>
      <point x="757" y="362" type="curve" smooth="yes"/>
      <point x="757" y="396"/>
      <point x="753" y="428"/>
      <point x="744" y="460" type="curve" smooth="yes"/>
      <point x="735" y="492"/>
      <point x="722" y="521"/>
      <point x="706" y="548" type="curve" smooth="yes"/>
      <point x="690" y="575"/>
      <point x="671" y="601"/>
      <point x="649" y="623" type="curve" smooth="yes"/>
      <point x="627" y="645"/>
      <point x="601" y="664"/>
      <point x="574" y="680" type="curve" smooth="yes"/>
      <point x="547" y="696"/>
      <point x="518" y="709"/>
      <point x="486" y="718" type="curve" smooth="yes"/>
      <point x="454" y="727"/>
      <point x="422" y="731"/>
      <point x="388" y="731" type="curve" smooth="yes"/>
      <point x="354" y="731"/>
      <point x="321" y="727"/>
      <point x="290" y="718" type="curve" smooth="yes"/>
      <point x="259" y="709"/>
      <point x="229" y="696"/>
      <point x="202" y="680" type="curve" smooth="yes"/>
      <point x="175" y="664"/>
      <point x="149" y="645"/>
      <point x="127" y="623" type="curve" smooth="yes"/>
      <point x="105" y="601"/>
      <point x="85" y="575"/>
      <point x="69" y="548" type="curve" smooth="yes"/>
      <point x="53" y="521"/>
      <point x="41" y="492"/>
      <point x="32" y="460" type="curve" smooth="yes"/>
      <point x="23" y="428"/>
      <point x="18" y="396"/>
      <point x="18" y="362" type="curve" smooth="yes"/>
    </contour>
    <contour>
      <point x="86" y="390"/>
      <point x="89" y="418"/>
      <point x="96" y="445" type="curve" smooth="yes"/>
      <point x="103" y="472"/>
      <point x="113" y="497"/>
      <point x="126" y="520" type="curve" smooth="yes"/>
      <point x="139" y="543"/>
      <point x="155" y="564"/>
      <point x="173" y="583" type="curve" smooth="yes"/>
      <point x="191" y="602"/>
      <point x="212" y="617"/>
      <point x="234" y="631" type="curve" smooth="yes"/>
      <point x="256" y="644"/>
      <point x="280" y="655"/>
      <point x="306" y="662" type="curve" smooth="yes"/>
      <point x="332" y="669"/>
      <point x="360" y="674"/>
      <point x="388" y="674" type="curve" smooth="yes"/>
      <point x="416" y="674"/>
      <point x="443" y="669"/>
      <point x="469" y="662" type="curve" smooth="yes"/>
      <point x="495" y="655"/>
      <point x="520" y="645"/>
      <point x="542" y="631" type="curve" smooth="yes"/>
      <point x="564" y="617"/>
      <point x="585" y="602"/>
      <point x="603" y="583" type="curve" smooth="yes"/>
      <point x="621" y="564"/>
      <point x="637" y="543"/>
      <point x="650" y="520" type="curve" smooth="yes"/>
      <point x="663" y="497"/>
      <point x="673" y="472"/>
      <point x="680" y="445" type="curve" smooth="yes"/>
      <point x="687" y="418"/>
      <point x="691" y="391"/>
      <point x="691" y="362" type="curve" smooth="yes"/>
      <point x="691" y="319"/>
      <point x="684" y="278"/>
      <point x="668" y="240" type="curve" smooth="yes"/>
      <point x="652" y="202"/>
      <point x="630" y="170"/>
      <point x="603" y="142" type="curve" smooth="yes"/>
      <point x="576" y="114"/>
      <point x="543" y="92"/>
      <point x="506" y="76" type="curve" smooth="yes"/>
      <point x="469" y="60"/>
      <point x="430" y="52"/>
      <point x="388" y="52" type="curve" smooth="yes"/>
      <point x="346" y="52"/>
      <point x="306" y="60"/>
      <point x="269" y="76" type="curve" smooth="yes"/>
      <point x="232" y="92"/>
      <point x="200" y="114"/>
      <point x="173" y="142" type="curve" smooth="yes"/>
      <point x="146" y="170"/>
      <point x="125" y="202"/>
      <point x="109" y="240" type="curve" smooth="yes"/>
      <point x="93" y="278"/>
      <point x="86" y="318"/>
      <point x="86" y="361" type="curve" smooth="yes"/>
    </contour>
    <contour>
      <point x="332" y="301" type="line"/>
      <point x="359" y="301" type="line" smooth="yes"/>
      <point x="367" y="301"/>
      <point x="374" y="299"/>
      <point x="378" y="297" type="curve" smooth="yes"/>
      <point x="382" y="295"/>
      <point x="386" y="291"/>
      <point x="389" y="286" type="curve"/>
      <point x="461" y="155" type="line" smooth="yes"/>
      <point x="467" y="144"/>
      <point x="478" y="138"/>
      <point x="493" y="138" type="curve" smooth="yes"/>
      <point x="596" y="138" type="line"/>
      <point x="505" y="292" type="line" smooth="yes"/>
      <point x="500" y="301"/>
      <point x="495" y="308"/>
      <point x="490" y="315" type="curve"/>
      <point x="485" y="321"/>
      <point x="479" y="327"/>
      <point x="471" y="331" type="curve"/>
      <point x="503" y="341"/>
      <point x="527" y="358"/>
      <point x="542" y="380" type="curve" smooth="yes"/>
      <point x="557" y="402"/>
      <point x="566" y="428"/>
      <point x="566" y="458" type="curve" smooth="yes"/>
      <point x="566" y="500"/>
      <point x="551" y="532"/>
      <point x="522" y="554" type="curve" smooth="yes"/>
      <point x="493" y="576"/>
      <point x="447" y="587"/>
      <point x="385" y="587" type="curve" smooth="yes"/>
      <point x="224" y="587" type="line"/>
      <point x="224" y="138" type="line"/>
      <point x="332" y="138" type="line"/>
    </contour>
    <contour>
      <point x="332" y="378" type="line"/>
      <point x="332" y="506" type="line"/>
      <point x="385" y="506" type="line" smooth="yes"/>
      <point x="400" y="506"/>
      <point x="413" y="504"/>
      <point x="423" y="502" type="curve" smooth="yes"/>
      <point x="433" y="500"/>
      <point x="440" y="496"/>
      <point x="446" y="491" type="curve" smooth="yes"/>
      <point x="452" y="486"/>
      <point x="455" y="479"/>
      <point x="457" y="471" type="curve" smooth="yes"/>
      <point x="459" y="463"/>
      <point x="460" y="454"/>
      <point x="460" y="444" type="curve" smooth="yes"/>
      <point x="460" y="433"/>
      <point x="459" y="424"/>
      <point x="457" y="416" type="curve" smooth="yes"/>
      <point x="455" y="408"/>
      <point x="450" y="400"/>
      <point x="444" y="394" type="curve" smooth="yes"/>
      <point x="438" y="388"/>
      <point x="429" y="385"/>
      <point x="418" y="382" type="curve" smooth="yes"/>
      <point x="407" y="379"/>
      <point x="393" y="378"/>
      <point x="376" y="378" type="curve" smooth="yes"/>
    </contour>
  </outline>
</glyph>
<glyph name="questiondown" format="1">
  <advance width="422"/>
  <unicode hex="00BF"/>
  <note>
    questiondown
  </note>
  <outline>
    <contour>
      <point x="372" y="-50" type="line"/>
      <point x="367" y="-40"/>
      <point x="358" y="-34"/>
      <point x="346" y="-34" type="curve" smooth="yes"/>
      <point x="341" y="-34"/>
      <point x="334" y="-37"/>
      <point x="328" y="-41" type="curve" smooth="yes"/>
      <point x="322" y="-45"/>
      <point x="314" y="-50"/>
      <point x="305" y="-55" type="curve" smooth="yes"/>
      <point x="296" y="-60"/>
      <point x="285" y="-65"/>
      <point x="272" y="-69" type="curve" smooth="yes"/>
      <point x="259" y="-73"/>
      <point x="243" y="-76"/>
      <point x="224" y="-76" type="curve" smooth="yes"/>
      <point x="211" y="-76"/>
      <point x="199" y="-74"/>
      <point x="188" y="-70" type="curve" smooth="yes"/>
      <point x="177" y="-66"/>
      <point x="167" y="-61"/>
      <point x="159" y="-54" type="curve" smooth="yes"/>
      <point x="151" y="-47"/>
      <point x="144" y="-40"/>
      <point x="140" y="-30" type="curve" smooth="yes"/>
      <point x="136" y="-20"/>
      <point x="134" y="-10"/>
      <point x="134" y="2" type="curve" smooth="yes"/>
      <point x="134" y="19"/>
      <point x="137" y="34"/>
      <point x="144" y="46" type="curve" smooth="yes"/>
      <point x="151" y="58"/>
      <point x="161" y="68"/>
      <point x="172" y="77" type="curve" smooth="yes"/>
      <point x="183" y="86"/>
      <point x="195" y="94"/>
      <point x="208" y="101" type="curve" smooth="yes"/>
      <point x="221" y="108"/>
      <point x="232" y="116"/>
      <point x="243" y="124" type="curve" smooth="yes"/>
      <point x="254" y="132"/>
      <point x="263" y="142"/>
      <point x="270" y="152" type="curve" smooth="yes"/>
      <point x="277" y="162"/>
      <point x="282" y="175"/>
      <point x="282" y="190" type="curve" smooth="yes"/>
      <point x="282" y="195" type="line" smooth="yes"/>
      <point x="282" y="197"/>
      <point x="281" y="198"/>
      <point x="281" y="200" type="curve"/>
      <point x="272" y="281" type="line"/>
      <point x="188" y="281" type="line"/>
      <point x="176" y="209" type="line" smooth="yes"/>
      <point x="174" y="198"/>
      <point x="169" y="189"/>
      <point x="161" y="181" type="curve" smooth="yes"/>
      <point x="153" y="173"/>
      <point x="143" y="166"/>
      <point x="131" y="158" type="curve" smooth="yes"/>
      <point x="119" y="150"/>
      <point x="107" y="142"/>
      <point x="94" y="133" type="curve" smooth="yes"/>
      <point x="81" y="124"/>
      <point x="68" y="113"/>
      <point x="57" y="101" type="curve" smooth="yes"/>
      <point x="46" y="89"/>
      <point x="37" y="74"/>
      <point x="30" y="56" type="curve" smooth="yes"/>
      <point x="23" y="38"/>
      <point x="18" y="17"/>
      <point x="18" y="-8" type="curve" smooth="yes"/>
      <point x="18" y="-34"/>
      <point x="23" y="-58"/>
      <point x="32" y="-78" type="curve" smooth="yes"/>
      <point x="41" y="-98"/>
      <point x="55" y="-116"/>
      <point x="72" y="-130" type="curve" smooth="yes"/>
      <point x="89" y="-144"/>
      <point x="109" y="-155"/>
      <point x="133" y="-163" type="curve" smooth="yes"/>
      <point x="157" y="-171"/>
      <point x="183" y="-175"/>
      <point x="212" y="-175" type="curve" smooth="yes"/>
      <point x="233" y="-175"/>
      <point x="254" y="-173"/>
      <point x="272" y="-169" type="curve" smooth="yes"/>
      <point x="290" y="-165"/>
      <point x="307" y="-160"/>
      <point x="323" y="-153" type="curve" smooth="yes"/>
      <point x="339" y="-146"/>
      <point x="353" y="-139"/>
      <point x="367" y="-130" type="curve" smooth="yes"/>
      <point x="381" y="-121"/>
      <point x="392" y="-112"/>
      <point x="404" y="-102" type="curve"/>
    </contour>
    <contour>
      <point x="156" y="435"/>
      <point x="158" y="425"/>
      <point x="162" y="416" type="curve" smooth="yes"/>
      <point x="166" y="407"/>
      <point x="171" y="400"/>
      <point x="178" y="393" type="curve" smooth="yes"/>
      <point x="185" y="386"/>
      <point x="193" y="381"/>
      <point x="202" y="377" type="curve" smooth="yes"/>
      <point x="211" y="373"/>
      <point x="221" y="371"/>
      <point x="232" y="371" type="curve" smooth="yes"/>
      <point x="242" y="371"/>
      <point x="253" y="373"/>
      <point x="262" y="377" type="curve" smooth="yes"/>
      <point x="271" y="381"/>
      <point x="279" y="386"/>
      <point x="286" y="393" type="curve" smooth="yes"/>
      <point x="293" y="400"/>
      <point x="298" y="407"/>
      <point x="302" y="416" type="curve" smooth="yes"/>
      <point x="306" y="425"/>
      <point x="308" y="435"/>
      <point x="308" y="446" type="curve" smooth="yes"/>
      <point x="308" y="456"/>
      <point x="306" y="467"/>
      <point x="302" y="476" type="curve" smooth="yes"/>
      <point x="298" y="485"/>
      <point x="293" y="493"/>
      <point x="286" y="500" type="curve" smooth="yes"/>
      <point x="279" y="507"/>
      <point x="271" y="512"/>
      <point x="262" y="516" type="curve" smooth="yes"/>
      <point x="253" y="520"/>
      <point x="243" y="522"/>
      <point x="233" y="522" type="curve" smooth="yes"/>
      <point x="222" y="522"/>
      <point x="212" y="520"/>
      <point x="203" y="516" type="curve" smooth="yes"/>
      <point x="194" y="512"/>
      <point x="185" y="507"/>
      <point x="178" y="500" type="curve" smooth="yes"/>
      <point x="171" y="493"/>
      <point x="166" y="485"/>
      <point x="162" y="476" type="curve" smooth="yes"/>
      <point x="158" y="467"/>
      <point x="156" y="456"/>
      <point x="156" y="446" type="curve" smooth="yes"/>
    </contour>
  </outline>
</glyph>
<glyph name="Acircumflex" format="1">
  <advance width="811"/>
  <unicode hex="00C2"/>
  <note>
    Acircumflex
  </note>
  <outline>
    <contour>
      <point x="769" y="79"/>
      <point x="750" y="87"/>
      <point x="719" y="100" type="curve"/>
      <point x="474" y="723" type="line"/>
      <point x="336" y="723" type="line"/>
      <point x="92" y="100" type="line"/>
      <point x="61" y="87"/>
      <point x="42" y="79"/>
      <point x="37" y="77" type="curve"/>
      <point x="24" y="71"/>
      <point x="17" y="63"/>
      <point x="17" y="51" type="curve" smooth="yes"/>
      <point x="17" y="0" type="line"/>
      <point x="52" y="0" type="line"/>
      <point x="131" y="0" type="line"/>
      <point x="147" y="0" type="line"/>
      <point x="157" y="0" type="line"/>
      <point x="261" y="0" type="line"/>
      <point x="261" y="51" type="line" smooth="yes"/>
      <point x="261" y="63"/>
      <point x="254" y="71"/>
      <point x="241" y="77" type="curve" smooth="yes"/>
      <point x="239" y="78"/>
      <point x="232" y="80"/>
      <point x="221" y="85" type="curve"/>
      <point x="224" y="91" type="line"/>
      <point x="261" y="194" type="line"/>
      <point x="549" y="194" type="line"/>
      <point x="585" y="96" type="line"/>
      <point x="589" y="85" type="line"/>
      <point x="578" y="80"/>
      <point x="571" y="78"/>
      <point x="569" y="77" type="curve" smooth="yes"/>
      <point x="556" y="71"/>
      <point x="549" y="63"/>
      <point x="549" y="51" type="curve" smooth="yes"/>
      <point x="549" y="0" type="line"/>
      <point x="654" y="0" type="line"/>
      <point x="663" y="0" type="line"/>
      <point x="680" y="0" type="line"/>
      <point x="758" y="0" type="line"/>
      <point x="793" y="0" type="line"/>
      <point x="793" y="51" type="line" smooth="yes"/>
      <point x="793" y="63"/>
      <point x="787" y="72"/>
      <point x="774" y="77" type="curve" smooth="yes"/>
    </contour>
    <contour>
      <point x="378" y="513" type="line" smooth="yes"/>
      <point x="382" y="524"/>
      <point x="387" y="536"/>
      <point x="391" y="551" type="curve" smooth="yes"/>
      <point x="395" y="566"/>
      <point x="400" y="582"/>
      <point x="405" y="599" type="curve"/>
      <point x="410" y="582"/>
      <point x="414" y="565"/>
      <point x="419" y="551" type="curve" smooth="yes"/>
      <point x="424" y="537"/>
      <point x="428" y="525"/>
      <point x="432" y="514" type="curve" smooth="yes"/>
      <point x="515" y="289" type="line"/>
      <point x="296" y="289" type="line"/>
    </contour>
    <contour>
      <point x="587" y="775" type="line"/>
      <point x="466" y="884" type="line"/>
      <point x="343" y="884" type="line"/>
      <point x="222" y="775" type="line"/>
      <point x="316" y="775" type="line" smooth="yes"/>
      <point x="321" y="775"/>
      <point x="326" y="776"/>
      <point x="332" y="777" type="curve" smooth="yes"/>
      <point x="338" y="778"/>
      <point x="343" y="780"/>
      <point x="347" y="783" type="curve"/>
      <point x="397" y="816" type="line"/>
      <point x="399" y="817"/>
      <point x="401" y="818"/>
      <point x="402" y="819" type="curve" smooth="yes"/>
      <point x="405" y="822" type="line"/>
      <point x="406" y="821"/>
      <point x="408" y="820"/>
      <point x="409" y="819" type="curve" smooth="yes"/>
      <point x="412" y="816" type="line"/>
      <point x="463" y="783" type="line"/>
      <point x="467" y="780"/>
      <point x="471" y="778"/>
      <point x="477" y="777" type="curve" smooth="yes"/>
      <point x="483" y="776"/>
      <point x="489" y="775"/>
      <point x="494" y="775" type="curve" smooth="yes"/>
    </contour>
  </outline>
</glyph>
<glyph name="Ccedilla" format="1">
  <advance width="637"/>
  <unicode hex="00C7"/>
  <note>
    Ccedilla
  </note>
  <outline>
    <contour>
      <point x="572" y="162" type="line"/>
      <point x="567" y="168"/>
      <point x="560" y="171"/>
      <point x="553" y="171" type="curve" smooth="yes"/>
      <point x="549" y="171"/>
      <point x="545" y="170"/>
      <point x="541" y="168" type="curve" smooth="yes"/>
      <point x="537" y="166"/>
      <point x="533" y="164"/>
      <point x="530" y="161" type="curve"/>
      <point x="519" y="151"/>
      <point x="508" y="142"/>
      <point x="497" y="135" type="curve" smooth="yes"/>
      <point x="486" y="128"/>
      <point x="474" y="123"/>
      <point x="462" y="119" type="curve" smooth="yes"/>
      <point x="450" y="115"/>
      <point x="436" y="111"/>
      <point x="421" y="109" type="curve" smooth="yes"/>
      <point x="406" y="107"/>
      <point x="389" y="106"/>
      <point x="371" y="106" type="curve" smooth="yes"/>
      <point x="340" y="106"/>
      <point x="312" y="111"/>
      <point x="285" y="123" type="curve" smooth="yes"/>
      <point x="258" y="135"/>
      <point x="236" y="151"/>
      <point x="216" y="173" type="curve" smooth="yes"/>
      <point x="196" y="195"/>
      <point x="181" y="221"/>
      <point x="169" y="253" type="curve" smooth="yes"/>
      <point x="158" y="285"/>
      <point x="152" y="320"/>
      <point x="152" y="361" type="curve" smooth="yes"/>
      <point x="152" y="400"/>
      <point x="157" y="437"/>
      <point x="169" y="468" type="curve" smooth="yes"/>
      <point x="180" y="499"/>
      <point x="197" y="526"/>
      <point x="217" y="548" type="curve" smooth="yes"/>
      <point x="237" y="570"/>
      <point x="261" y="587"/>
      <point x="290" y="599" type="curve" smooth="yes"/>
      <point x="318" y="611"/>
      <point x="350" y="616"/>
      <point x="384" y="616" type="curve"/>
      <point x="384" y="617" type="line"/>
      <point x="421" y="617"/>
      <point x="467" y="609"/>
      <point x="522" y="593" type="curve"/>
      <point x="526" y="549"/>
      <point x="529" y="522"/>
      <point x="531" y="513" type="curve" smooth="yes"/>
      <point x="534" y="501"/>
      <point x="541" y="495"/>
      <point x="554" y="495" type="curve" smooth="yes"/>
      <point x="595" y="495" type="line"/>
      <point x="607" y="495" type="line"/>
      <point x="612" y="495" type="line"/>
      <point x="612" y="607" type="line"/>
      <point x="612" y="615" type="line"/>
      <point x="612" y="679" type="line"/>
      <point x="521" y="714"/>
      <point x="445" y="731"/>
      <point x="385" y="731" type="curve" smooth="yes"/>
      <point x="330" y="731"/>
      <point x="280" y="722"/>
      <point x="234" y="704" type="curve" smooth="yes"/>
      <point x="188" y="686"/>
      <point x="150" y="660"/>
      <point x="117" y="627" type="curve" smooth="yes"/>
      <point x="84" y="594"/>
      <point x="59" y="556"/>
      <point x="41" y="511" type="curve" smooth="yes"/>
      <point x="23" y="466"/>
      <point x="14" y="416"/>
      <point x="14" y="362" type="curve" smooth="yes"/>
      <point x="14" y="308"/>
      <point x="22" y="258"/>
      <point x="38" y="213" type="curve" smooth="yes"/>
      <point x="54" y="168"/>
      <point x="78" y="129"/>
      <point x="108" y="96" type="curve" smooth="yes"/>
      <point x="138" y="63"/>
      <point x="175" y="38"/>
      <point x="218" y="20" type="curve" smooth="yes"/>
      <point x="248" y="7"/>
      <point x="281" y="-2"/>
      <point x="317" y="-6" type="curve"/>
      <point x="299" y="-67" type="line"/>
      <point x="324" y="-70"/>
      <point x="342" y="-74"/>
      <point x="354" y="-78" type="curve" smooth="yes"/>
      <point x="366" y="-82"/>
      <point x="372" y="-89"/>
      <point x="372" y="-99" type="curve" smooth="yes"/>
      <point x="372" y="-105"/>
      <point x="369" y="-110"/>
      <point x="364" y="-114" type="curve"/>
      <point x="358" y="-118"/>
      <point x="350" y="-120"/>
      <point x="339" y="-120" type="curve" smooth="yes"/>
      <point x="334" y="-120"/>
      <point x="329" y="-120"/>
      <point x="325" y="-119" type="curve" smooth="yes"/>
      <point x="321" y="-118"/>
      <point x="318" y="-118"/>
      <point x="315" y="-117" type="curve" smooth="yes"/>
      <point x="312" y="-116"/>
      <point x="308" y="-115"/>
      <point x="306" y="-114" type="curve" smooth="yes"/>
      <point x="304" y="-113"/>
      <point x="301" y="-114"/>
      <point x="299" y="-114" type="curve" smooth="yes"/>
      <point x="292" y="-114"/>
      <point x="287" y="-117"/>
      <point x="285" y="-125" type="curve"/>
      <point x="274" y="-163" type="line"/>
      <point x="286" y="-167"/>
      <point x="297" y="-169"/>
      <point x="309" y="-171" type="curve" smooth="yes"/>
      <point x="321" y="-173"/>
      <point x="333" y="-174"/>
      <point x="347" y="-174" type="curve" smooth="yes"/>
      <point x="365" y="-174"/>
      <point x="382" y="-172"/>
      <point x="397" y="-169" type="curve" smooth="yes"/>
      <point x="412" y="-166"/>
      <point x="424" y="-160"/>
      <point x="435" y="-154" type="curve" smooth="yes"/>
      <point x="446" y="-148"/>
      <point x="454" y="-140"/>
      <point x="460" y="-131" type="curve" smooth="yes"/>
      <point x="466" y="-122"/>
      <point x="469" y="-113"/>
      <point x="469" y="-102" type="curve" smooth="yes"/>
      <point x="469" y="-85"/>
      <point x="463" y="-70"/>
      <point x="451" y="-57" type="curve" smooth="yes"/>
      <point x="439" y="-44"/>
      <point x="418" y="-35"/>
      <point x="388" y="-28" type="curve"/>
      <point x="393" y="-7" type="line"/>
      <point x="440" y="-4"/>
      <point x="482" y="5"/>
      <point x="517" y="21" type="curve" smooth="yes"/>
      <point x="560" y="40"/>
      <point x="596" y="68"/>
      <point x="625" y="104" type="curve"/>
    </contour>
  </outline>
</glyph>
<glyph name="Ecircumflex" format="1">
  <advance width="574"/>
  <unicode hex="00CA"/>
  <note>
    Ecircumflex
  </note>
  <outline>
    <contour>
      <point x="96" y="723" type="line"/>
      <point x="20" y="723" type="line"/>
      <point x="20" y="664" type="line" smooth="yes"/>
      <point x="20" y="647"/>
      <point x="28" y="637"/>
      <point x="45" y="633" type="curve"/>
      <point x="46" y="633"/>
      <point x="48" y="632"/>
      <point x="51" y="632" type="curve" smooth="yes"/>
      <point x="54" y="632"/>
      <point x="59" y="630"/>
      <point x="66" y="629" type="curve" smooth="yes"/>
      <point x="73" y="628"/>
      <point x="84" y="626"/>
      <point x="96" y="624" type="curve"/>
      <point x="96" y="99" type="line"/>
      <point x="84" y="97"/>
      <point x="73" y="95"/>
      <point x="66" y="94" type="curve" smooth="yes"/>
      <point x="59" y="93"/>
      <point x="54" y="91"/>
      <point x="51" y="91" type="curve" smooth="yes"/>
      <point x="48" y="91"/>
      <point x="46" y="90"/>
      <point x="45" y="90" type="curve"/>
      <point x="28" y="86"/>
      <point x="20" y="76"/>
      <point x="20" y="59" type="curve" smooth="yes"/>
      <point x="20" y="0" type="line"/>
      <point x="96" y="0" type="line"/>
      <point x="552" y="0" type="line"/>
      <point x="552" y="70" type="line"/>
      <point x="552" y="108" type="line"/>
      <point x="552" y="191" type="line"/>
      <point x="547" y="191" type="line"/>
      <point x="535" y="191" type="line"/>
      <point x="494" y="191" type="line" smooth="yes"/>
      <point x="481" y="191"/>
      <point x="474" y="184"/>
      <point x="471" y="172" type="curve"/>
      <point x="470" y="164"/>
      <point x="467" y="143"/>
      <point x="464" y="108" type="curve"/>
      <point x="231" y="108" type="line"/>
      <point x="231" y="312" type="line"/>
      <point x="476" y="312" type="line"/>
      <point x="476" y="416" type="line"/>
      <point x="231" y="416" type="line"/>
      <point x="231" y="616" type="line"/>
      <point x="464" y="616" type="line"/>
      <point x="467" y="581"/>
      <point x="470" y="560"/>
      <point x="471" y="552" type="curve"/>
      <point x="474" y="540"/>
      <point x="481" y="533"/>
      <point x="494" y="533" type="curve" smooth="yes"/>
      <point x="535" y="533" type="line"/>
      <point x="547" y="533" type="line"/>
      <point x="552" y="533" type="line"/>
      <point x="552" y="616" type="line"/>
      <point x="552" y="653" type="line"/>
      <point x="552" y="723" type="line"/>
    </contour>
    <contour>
      <point x="514" y="775" type="line"/>
      <point x="393" y="884" type="line"/>
      <point x="270" y="884" type="line"/>
      <point x="149" y="775" type="line"/>
      <point x="242" y="775" type="line" smooth="yes"/>
      <point x="247" y="775"/>
      <point x="253" y="776"/>
      <point x="259" y="777" type="curve" smooth="yes"/>
      <point x="265" y="778"/>
      <point x="269" y="780"/>
      <point x="273" y="783" type="curve"/>
      <point x="324" y="816" type="line"/>
      <point x="326" y="817"/>
      <point x="327" y="818"/>
      <point x="328" y="819" type="curve" smooth="yes"/>
      <point x="331" y="822" type="line"/>
      <point x="332" y="821"/>
      <point x="334" y="820"/>
      <point x="335" y="819" type="curve" smooth="yes"/>
      <point x="336" y="818"/>
      <point x="338" y="817"/>
      <point x="339" y="816" type="curve"/>
      <point x="389" y="783" type="line"/>
      <point x="393" y="780"/>
      <point x="398" y="778"/>
      <point x="404" y="777" type="curve" smooth="yes"/>
      <point x="410" y="776"/>
      <point x="415" y="775"/>
      <point x="420" y="775" type="curve" smooth="yes"/>
    </contour>
  </outline>
</glyph>
<glyph name="Edieresis" format="1">
  <advance width="574"/>
  <unicode hex="00CB"/>
  <note>
    Edieresis
  </note>
  <outline>
    <contour>
      <point x="96" y="723" type="line"/>
      <point x="20" y="723" type="line"/>
      <point x="20" y="664" type="line" smooth="yes"/>
      <point x="20" y="647"/>
      <point x="28" y="637"/>
      <point x="45" y="633" type="curve"/>
      <point x="46" y="633"/>
      <point x="48" y="632"/>
      <point x="51" y="632" type="curve" smooth="yes"/>
      <point x="54" y="632"/>
      <point x="59" y="630"/>
      <point x="66" y="629" type="curve" smooth="yes"/>
      <point x="73" y="628"/>
      <point x="84" y="626"/>
      <point x="96" y="624" type="curve"/>
      <point x="96" y="99" type="line"/>
      <point x="84" y="97"/>
      <point x="73" y="95"/>
      <point x="66" y="94" type="curve" smooth="yes"/>
      <point x="59" y="93"/>
      <point x="54" y="91"/>
      <point x="51" y="91" type="curve" smooth="yes"/>
      <point x="48" y="91"/>
      <point x="46" y="90"/>
      <point x="45" y="90" type="curve"/>
      <point x="28" y="86"/>
      <point x="20" y="76"/>
      <point x="20" y="59" type="curve" smooth="yes"/>
      <point x="20" y="0" type="line"/>
      <point x="96" y="0" type="line"/>
      <point x="552" y="0" type="line"/>
      <point x="552" y="70" type="line"/>
      <point x="552" y="108" type="line"/>
      <point x="552" y="191" type="line"/>
      <point x="547" y="191" type="line"/>
      <point x="535" y="191" type="line"/>
      <point x="494" y="191" type="line" smooth="yes"/>
      <point x="481" y="191"/>
      <point x="474" y="184"/>
      <point x="471" y="172" type="curve"/>
      <point x="470" y="164"/>
      <point x="467" y="143"/>
      <point x="464" y="108" type="curve"/>
      <point x="231" y="108" type="line"/>
      <point x="231" y="312" type="line"/>
      <point x="476" y="312" type="line"/>
      <point x="476" y="416" type="line"/>
      <point x="231" y="416" type="line"/>
      <point x="231" y="616" type="line"/>
      <point x="464" y="616" type="line"/>
      <point x="467" y="581"/>
      <point x="470" y="560"/>
      <point x="471" y="552" type="curve"/>
      <point x="474" y="540"/>
      <point x="481" y="533"/>
      <point x="494" y="533" type="curve" smooth="yes"/>
      <point x="535" y="533" type="line"/>
      <point x="547" y="533" type="line"/>
      <point x="552" y="533" type="line"/>
      <point x="552" y="616" type="line"/>
      <point x="552" y="653" type="line"/>
      <point x="552" y="723" type="line"/>
    </contour>
    <contour>
      <point x="290" y="843"/>
      <point x="289" y="851"/>
      <point x="285" y="859" type="curve" smooth="yes"/>
      <point x="281" y="867"/>
      <point x="276" y="875"/>
      <point x="270" y="881" type="curve" smooth="yes"/>
      <point x="264" y="887"/>
      <point x="256" y="892"/>
      <point x="248" y="896" type="curve" smooth="yes"/>
      <point x="240" y="900"/>
      <point x="230" y="901"/>
      <point x="221" y="901" type="curve" smooth="yes"/>
      <point x="212" y="901"/>
      <point x="204" y="900"/>
      <point x="196" y="896" type="curve" smooth="yes"/>
      <point x="188" y="892"/>
      <point x="182" y="887"/>
      <point x="176" y="881" type="curve" smooth="yes"/>
      <point x="170" y="875"/>
      <point x="165" y="867"/>
      <point x="161" y="859" type="curve" smooth="yes"/>
      <point x="157" y="851"/>
      <point x="156" y="843"/>
      <point x="156" y="834" type="curve" smooth="yes"/>
      <point x="156" y="825"/>
      <point x="157" y="816"/>
      <point x="161" y="808" type="curve" smooth="yes"/>
      <point x="165" y="800"/>
      <point x="170" y="793"/>
      <point x="176" y="787" type="curve" smooth="yes"/>
      <point x="182" y="781"/>
      <point x="188" y="776"/>
      <point x="196" y="773" type="curve" smooth="yes"/>
      <point x="204" y="770"/>
      <point x="212" y="768"/>
      <point x="221" y="768" type="curve" smooth="yes"/>
      <point x="230" y="768"/>
      <point x="240" y="770"/>
      <point x="248" y="773" type="curve" smooth="yes"/>
      <point x="256" y="776"/>
      <point x="264" y="781"/>
      <point x="270" y="787" type="curve" smooth="yes"/>
      <point x="276" y="793"/>
      <point x="281" y="800"/>
      <point x="285" y="808" type="curve" smooth="yes"/>
      <point x="289" y="816"/>
      <point x="290" y="825"/>
      <point x="290" y="834" type="curve" smooth="yes"/>
    </contour>
    <contour>
      <point x="506" y="843"/>
      <point x="505" y="851"/>
      <point x="501" y="859" type="curve" smooth="yes"/>
      <point x="497" y="867"/>
      <point x="493" y="875"/>
      <point x="487" y="881" type="curve" smooth="yes"/>
      <point x="481" y="887"/>
      <point x="473" y="891"/>
      <point x="465" y="895" type="curve" smooth="yes"/>
      <point x="457" y="899"/>
      <point x="448" y="901"/>
      <point x="439" y="901" type="curve" smooth="yes"/>
      <point x="430" y="901"/>
      <point x="421" y="899"/>
      <point x="413" y="895" type="curve" smooth="yes"/>
      <point x="405" y="891"/>
      <point x="398" y="887"/>
      <point x="392" y="881" type="curve" smooth="yes"/>
      <point x="386" y="875"/>
      <point x="381" y="867"/>
      <point x="377" y="859" type="curve" smooth="yes"/>
      <point x="373" y="851"/>
      <point x="372" y="843"/>
      <point x="372" y="834" type="curve" smooth="yes"/>
      <point x="372" y="825"/>
      <point x="373" y="816"/>
      <point x="377" y="808" type="curve"/>
      <point x="380" y="800"/>
      <point x="386" y="793"/>
      <point x="392" y="787" type="curve" smooth="yes"/>
      <point x="398" y="781"/>
      <point x="405" y="776"/>
      <point x="413" y="773" type="curve" smooth="yes"/>
      <point x="421" y="770"/>
      <point x="430" y="768"/>
      <point x="439" y="768" type="curve" smooth="yes"/>
      <point x="448" y="768"/>
      <point x="457" y="770"/>
      <point x="465" y="773" type="curve" smooth="yes"/>
      <point x="473" y="776"/>
      <point x="481" y="781"/>
      <point x="487" y="787" type="curve" smooth="yes"/>
      <point x="493" y="793"/>
      <point x="498" y="800"/>
      <point x="501" y="808" type="curve"/>
      <point x="505" y="816"/>
      <point x="506" y="825"/>
      <point x="506" y="834" type="curve" smooth="yes"/>
    </contour>
  </outline>
</glyph>
<glyph name="Igrave" format="1">
  <advance width="380"/>
  <unicode hex="00CC"/>
  <note>
    Igrave
  </note>
  <outline>
    <contour>
      <point x="352" y="637"/>
      <point x="360" y="647"/>
      <point x="360" y="664" type="curve" smooth="yes"/>
      <point x="360" y="723" type="line"/>
      <point x="284" y="723" type="line"/>
      <point x="150" y="723" type="line"/>
      <point x="74" y="723" type="line"/>
      <point x="74" y="664" type="line" smooth="yes"/>
      <point x="74" y="647"/>
      <point x="82" y="637"/>
      <point x="99" y="633" type="curve"/>
      <point x="100" y="633"/>
      <point x="102" y="633"/>
      <point x="105" y="632" type="curve"/>
      <point x="108" y="632"/>
      <point x="113" y="630"/>
      <point x="120" y="629" type="curve" smooth="yes"/>
      <point x="127" y="628"/>
      <point x="138" y="626"/>
      <point x="150" y="624" type="curve"/>
      <point x="150" y="99" type="line"/>
      <point x="138" y="97"/>
      <point x="127" y="95"/>
      <point x="120" y="94" type="curve" smooth="yes"/>
      <point x="113" y="93"/>
      <point x="108" y="92"/>
      <point x="105" y="91" type="curve"/>
      <point x="102" y="91"/>
      <point x="100" y="90"/>
      <point x="99" y="90" type="curve"/>
      <point x="82" y="86"/>
      <point x="74" y="76"/>
      <point x="74" y="59" type="curve" smooth="yes"/>
      <point x="74" y="0" type="line"/>
      <point x="150" y="0" type="line"/>
      <point x="284" y="0" type="line"/>
      <point x="360" y="0" type="line"/>
      <point x="360" y="59" type="line" smooth="yes"/>
      <point x="360" y="76"/>
      <point x="352" y="86"/>
      <point x="335" y="90" type="curve"/>
      <point x="334" y="90"/>
      <point x="332" y="91"/>
      <point x="329" y="91" type="curve" smooth="yes"/>
      <point x="326" y="91"/>
      <point x="321" y="93"/>
      <point x="314" y="94" type="curve" smooth="yes"/>
      <point x="307" y="95"/>
      <point x="296" y="97"/>
      <point x="284" y="99" type="curve"/>
      <point x="284" y="624" type="line"/>
      <point x="296" y="626"/>
      <point x="307" y="628"/>
      <point x="314" y="629" type="curve" smooth="yes"/>
      <point x="321" y="630"/>
      <point x="326" y="632"/>
      <point x="329" y="632" type="curve" smooth="yes"/>
      <point x="332" y="632"/>
      <point x="334" y="633"/>
      <point x="335" y="633" type="curve"/>
    </contour>
    <contour>
      <point x="11" y="896" type="line"/>
      <point x="159" y="786" type="line" smooth="yes"/>
      <point x="163" y="783"/>
      <point x="166" y="782"/>
      <point x="169" y="780" type="curve" smooth="yes"/>
      <point x="172" y="778"/>
      <point x="175" y="777"/>
      <point x="178" y="776" type="curve" smooth="yes"/>
      <point x="181" y="775"/>
      <point x="184" y="775"/>
      <point x="188" y="775" type="curve" smooth="yes"/>
      <point x="192" y="775"/>
      <point x="195" y="774"/>
      <point x="200" y="774" type="curve" smooth="yes"/>
      <point x="298" y="774" type="line"/>
      <point x="199" y="876" type="line" smooth="yes"/>
      <point x="195" y="880"/>
      <point x="191" y="883"/>
      <point x="188" y="886" type="curve" smooth="yes"/>
      <point x="185" y="889"/>
      <point x="182" y="890"/>
      <point x="178" y="892" type="curve" smooth="yes"/>
      <point x="174" y="894"/>
      <point x="170" y="895"/>
      <point x="165" y="895" type="curve" smooth="yes"/>
      <point x="160" y="895"/>
      <point x="155" y="896"/>
      <point x="148" y="896" type="curve" smooth="yes"/>
    </contour>
  </outline>
</glyph>
<glyph name="Iacute" format="1">
  <advance width="369"/>
  <unicode hex="00CD"/>
  <note>
    Iacute
  </note>
  <outline>
    <contour>
      <point x="298" y="637"/>
      <point x="306" y="647"/>
      <point x="306" y="664" type="curve" smooth="yes"/>
      <point x="306" y="723" type="line"/>
      <point x="231" y="723" type="line"/>
      <point x="96" y="723" type="line"/>
      <point x="20" y="723" type="line"/>
      <point x="20" y="664" type="line" smooth="yes"/>
      <point x="20" y="647"/>
      <point x="28" y="637"/>
      <point x="45" y="633" type="curve"/>
      <point x="46" y="633"/>
      <point x="48" y="633"/>
      <point x="51" y="632" type="curve"/>
      <point x="54" y="632"/>
      <point x="59" y="630"/>
      <point x="66" y="629" type="curve" smooth="yes"/>
      <point x="73" y="628"/>
      <point x="84" y="626"/>
      <point x="96" y="624" type="curve"/>
      <point x="96" y="99" type="line"/>
      <point x="84" y="97"/>
      <point x="73" y="95"/>
      <point x="66" y="94" type="curve" smooth="yes"/>
      <point x="59" y="93"/>
      <point x="54" y="92"/>
      <point x="51" y="91" type="curve"/>
      <point x="48" y="91"/>
      <point x="46" y="90"/>
      <point x="45" y="90" type="curve"/>
      <point x="28" y="86"/>
      <point x="20" y="76"/>
      <point x="20" y="59" type="curve" smooth="yes"/>
      <point x="20" y="0" type="line"/>
      <point x="96" y="0" type="line"/>
      <point x="231" y="0" type="line"/>
      <point x="306" y="0" type="line"/>
      <point x="306" y="59" type="line" smooth="yes"/>
      <point x="306" y="76"/>
      <point x="298" y="86"/>
      <point x="281" y="90" type="curve"/>
      <point x="280" y="90"/>
      <point x="278" y="91"/>
      <point x="275" y="91" type="curve" smooth="yes"/>
      <point x="272" y="91"/>
      <point x="267" y="93"/>
      <point x="260" y="94" type="curve" smooth="yes"/>
      <point x="253" y="95"/>
      <point x="243" y="97"/>
      <point x="231" y="99" type="curve"/>
      <point x="231" y="624" type="line"/>
      <point x="243" y="626"/>
      <point x="253" y="628"/>
      <point x="260" y="629" type="curve" smooth="yes"/>
      <point x="267" y="630"/>
      <point x="272" y="632"/>
      <point x="275" y="632" type="curve" smooth="yes"/>
      <point x="278" y="632"/>
      <point x="280" y="633"/>
      <point x="281" y="633" type="curve"/>
    </contour>
    <contour>
      <point x="358" y="896" type="line"/>
      <point x="220" y="896" type="line" smooth="yes"/>
      <point x="213" y="896"/>
      <point x="208" y="895"/>
      <point x="203" y="895" type="curve" smooth="yes"/>
      <point x="198" y="895"/>
      <point x="195" y="894"/>
      <point x="191" y="892" type="curve"/>
      <point x="187" y="891"/>
      <point x="184" y="889"/>
      <point x="180" y="886" type="curve" smooth="yes"/>
      <point x="176" y="883"/>
      <point x="173" y="880"/>
      <point x="169" y="876" type="curve" smooth="yes"/>
      <point x="71" y="774" type="line"/>
      <point x="168" y="774" type="line" smooth="yes"/>
      <point x="173" y="774"/>
      <point x="176" y="775"/>
      <point x="180" y="775" type="curve" smooth="yes"/>
      <point x="184" y="775"/>
      <point x="187" y="776"/>
      <point x="190" y="777" type="curve" smooth="yes"/>
      <point x="193" y="778"/>
      <point x="196" y="779"/>
      <point x="199" y="781" type="curve" smooth="yes"/>
      <point x="202" y="783"/>
      <point x="206" y="785"/>
      <point x="210" y="788" type="curve" smooth="yes"/>
    </contour>
  </outline>
</glyph>
<glyph name="Icircumflex" format="1">
  <advance width="387"/>
  <unicode hex="00CE"/>
  <note>
    Icircumflex
  </note>
  <outline>
    <contour>
      <point x="327" y="637"/>
      <point x="335" y="647"/>
      <point x="335" y="664" type="curve" smooth="yes"/>
      <point x="335" y="723" type="line"/>
      <point x="259" y="723" type="line"/>
      <point x="124" y="723" type="line"/>
      <point x="48" y="723" type="line"/>
      <point x="48" y="664" type="line" smooth="yes"/>
      <point x="48" y="647"/>
      <point x="56" y="637"/>
      <point x="73" y="633" type="curve"/>
      <point x="74" y="633"/>
      <point x="77" y="633"/>
      <point x="80" y="632" type="curve"/>
      <point x="83" y="632"/>
      <point x="87" y="630"/>
      <point x="94" y="629" type="curve" smooth="yes"/>
      <point x="101" y="628"/>
      <point x="112" y="626"/>
      <point x="124" y="624" type="curve"/>
      <point x="124" y="99" type="line"/>
      <point x="112" y="97"/>
      <point x="101" y="95"/>
      <point x="94" y="94" type="curve" smooth="yes"/>
      <point x="87" y="93"/>
      <point x="83" y="92"/>
      <point x="80" y="91" type="curve"/>
      <point x="77" y="91"/>
      <point x="74" y="90"/>
      <point x="73" y="90" type="curve"/>
      <point x="56" y="86"/>
      <point x="48" y="76"/>
      <point x="48" y="59" type="curve" smooth="yes"/>
      <point x="48" y="0" type="line"/>
      <point x="124" y="0" type="line"/>
      <point x="259" y="0" type="line"/>
      <point x="335" y="0" type="line"/>
      <point x="335" y="59" type="line" smooth="yes"/>
      <point x="335" y="76"/>
      <point x="327" y="86"/>
      <point x="310" y="90" type="curve"/>
      <point x="309" y="90"/>
      <point x="306" y="91"/>
      <point x="303" y="91" type="curve" smooth="yes"/>
      <point x="300" y="91"/>
      <point x="296" y="93"/>
      <point x="289" y="94" type="curve" smooth="yes"/>
      <point x="282" y="95"/>
      <point x="271" y="97"/>
      <point x="259" y="99" type="curve"/>
      <point x="259" y="624" type="line"/>
      <point x="271" y="626"/>
      <point x="282" y="628"/>
      <point x="289" y="629" type="curve" smooth="yes"/>
      <point x="296" y="630"/>
      <point x="300" y="632"/>
      <point x="303" y="632" type="curve" smooth="yes"/>
      <point x="306" y="632"/>
      <point x="309" y="633"/>
      <point x="310" y="633" type="curve"/>
    </contour>
    <contour>
      <point x="376" y="774" type="line"/>
      <point x="255" y="884" type="line"/>
      <point x="132" y="884" type="line"/>
      <point x="11" y="774" type="line"/>
      <point x="104" y="774" type="line" smooth="yes"/>
      <point x="109" y="774"/>
      <point x="115" y="775"/>
      <point x="121" y="776" type="curve" smooth="yes"/>
      <point x="127" y="777"/>
      <point x="132" y="779"/>
      <point x="136" y="782" type="curve"/>
      <point x="186" y="816" type="line"/>
      <point x="188" y="817"/>
      <point x="189" y="818"/>
      <point x="190" y="819" type="curve" smooth="yes"/>
      <point x="191" y="820"/>
      <point x="193" y="821"/>
      <point x="194" y="822" type="curve"/>
      <point x="195" y="821"/>
      <point x="196" y="819"/>
      <point x="197" y="818" type="curve" smooth="yes"/>
      <point x="198" y="817"/>
      <point x="200" y="817"/>
      <point x="201" y="816" type="curve"/>
      <point x="252" y="782" type="line"/>
      <point x="256" y="779"/>
      <point x="260" y="777"/>
      <point x="266" y="776" type="curve" smooth="yes"/>
      <point x="272" y="775"/>
      <point x="277" y="774"/>
      <point x="282" y="774" type="curve" smooth="yes"/>
    </contour>
  </outline>
</glyph>
<glyph name="germandbls" format="1">
  <advance width="553"/>
  <unicode hex="00DF"/>
  <note>
    germandbls
  </note>
  <outline>
    <contour>
      <point x="245" y="736"/>
      <point x="208" y="729"/>
      <point x="176" y="717" type="curve" smooth="yes"/>
      <point x="144" y="705"/>
      <point x="116" y="688"/>
      <point x="94" y="666" type="curve" smooth="yes"/>
      <point x="72" y="644"/>
      <point x="54" y="620"/>
      <point x="42" y="590" type="curve" smooth="yes"/>
      <point x="30" y="560"/>
      <point x="24" y="527"/>
      <point x="24" y="492" type="curve" smooth="yes"/>
      <point x="24" y="0" type="line"/>
      <point x="148" y="0" type="line"/>
      <point x="148" y="488" type="line" smooth="yes"/>
      <point x="148" y="540"/>
      <point x="159" y="579"/>
      <point x="181" y="606" type="curve" smooth="yes"/>
      <point x="203" y="633"/>
      <point x="236" y="646"/>
      <point x="280" y="646" type="curve" smooth="yes"/>
      <point x="298" y="646"/>
      <point x="315" y="644"/>
      <point x="328" y="640" type="curve" smooth="yes"/>
      <point x="341" y="636"/>
      <point x="352" y="629"/>
      <point x="360" y="622" type="curve" smooth="yes"/>
      <point x="368" y="615"/>
      <point x="374" y="607"/>
      <point x="378" y="597" type="curve" smooth="yes"/>
      <point x="382" y="587"/>
      <point x="384" y="577"/>
      <point x="384" y="566" type="curve" smooth="yes"/>
      <point x="384" y="552"/>
      <point x="381" y="539"/>
      <point x="374" y="529" type="curve" smooth="yes"/>
      <point x="367" y="519"/>
      <point x="357" y="509"/>
      <point x="347" y="500" type="curve" smooth="yes"/>
      <point x="337" y="491"/>
      <point x="325" y="482"/>
      <point x="313" y="474" type="curve" smooth="yes"/>
      <point x="301" y="466"/>
      <point x="289" y="456"/>
      <point x="279" y="445" type="curve" smooth="yes"/>
      <point x="269" y="434"/>
      <point x="260" y="422"/>
      <point x="253" y="408" type="curve" smooth="yes"/>
      <point x="246" y="394"/>
      <point x="242" y="379"/>
      <point x="242" y="360" type="curve" smooth="yes"/>
      <point x="242" y="337"/>
      <point x="247" y="317"/>
      <point x="256" y="302" type="curve" smooth="yes"/>
      <point x="265" y="287"/>
      <point x="275" y="274"/>
      <point x="289" y="264" type="curve"/>
      <point x="302" y="254"/>
      <point x="317" y="245"/>
      <point x="333" y="237" type="curve" smooth="yes"/>
      <point x="349" y="229"/>
      <point x="363" y="221"/>
      <point x="377" y="213" type="curve" smooth="yes"/>
      <point x="391" y="205"/>
      <point x="402" y="195"/>
      <point x="411" y="185" type="curve" smooth="yes"/>
      <point x="420" y="175"/>
      <point x="424" y="162"/>
      <point x="424" y="146" type="curve" smooth="yes"/>
      <point x="424" y="126"/>
      <point x="418" y="109"/>
      <point x="405" y="97" type="curve" smooth="yes"/>
      <point x="392" y="85"/>
      <point x="375" y="78"/>
      <point x="354" y="78" type="curve" smooth="yes"/>
      <point x="339" y="78"/>
      <point x="326" y="81"/>
      <point x="315" y="85" type="curve" smooth="yes"/>
      <point x="304" y="89"/>
      <point x="295" y="94"/>
      <point x="287" y="99" type="curve" smooth="yes"/>
      <point x="279" y="104"/>
      <point x="271" y="109"/>
      <point x="264" y="113" type="curve" smooth="yes"/>
      <point x="257" y="117"/>
      <point x="250" y="120"/>
      <point x="242" y="120" type="curve" smooth="yes"/>
      <point x="234" y="120"/>
      <point x="228" y="118"/>
      <point x="223" y="115" type="curve" smooth="yes"/>
      <point x="218" y="112"/>
      <point x="213" y="108"/>
      <point x="210" y="102" type="curve"/>
      <point x="181" y="55" type="line"/>
      <point x="191" y="46"/>
      <point x="203" y="38"/>
      <point x="215" y="30" type="curve" smooth="yes"/>
      <point x="227" y="22"/>
      <point x="240" y="16"/>
      <point x="254" y="10" type="curve" smooth="yes"/>
      <point x="268" y="4"/>
      <point x="282" y="0"/>
      <point x="297" y="-3" type="curve" smooth="yes"/>
      <point x="312" y="-6"/>
      <point x="328" y="-8"/>
      <point x="343" y="-8" type="curve" smooth="yes"/>
      <point x="370" y="-8"/>
      <point x="394" y="-5"/>
      <point x="418" y="3" type="curve" smooth="yes"/>
      <point x="442" y="11"/>
      <point x="463" y="22"/>
      <point x="481" y="37" type="curve" smooth="yes"/>
      <point x="499" y="52"/>
      <point x="514" y="69"/>
      <point x="524" y="91" type="curve" smooth="yes"/>
      <point x="534" y="113"/>
      <point x="540" y="138"/>
      <point x="540" y="166" type="curve" smooth="yes"/>
      <point x="540" y="192"/>
      <point x="535" y="213"/>
      <point x="527" y="231" type="curve" smooth="yes"/>
      <point x="519" y="249"/>
      <point x="508" y="264"/>
      <point x="496" y="276" type="curve" smooth="yes"/>
      <point x="484" y="288"/>
      <point x="471" y="299"/>
      <point x="456" y="308" type="curve" smooth="yes"/>
      <point x="441" y="317"/>
      <point x="427" y="324"/>
      <point x="415" y="332" type="curve" smooth="yes"/>
      <point x="403" y="340"/>
      <point x="392" y="348"/>
      <point x="384" y="356" type="curve" smooth="yes"/>
      <point x="376" y="364"/>
      <point x="372" y="373"/>
      <point x="372" y="384" type="curve" smooth="yes"/>
      <point x="372" y="394"/>
      <point x="375" y="402"/>
      <point x="381" y="410" type="curve" smooth="yes"/>
      <point x="387" y="418"/>
      <point x="396" y="425"/>
      <point x="406" y="432" type="curve" smooth="yes"/>
      <point x="416" y="439"/>
      <point x="427" y="446"/>
      <point x="438" y="454" type="curve" smooth="yes"/>
      <point x="449" y="462"/>
      <point x="459" y="471"/>
      <point x="469" y="481" type="curve" smooth="yes"/>
      <point x="479" y="491"/>
      <point x="487" y="502"/>
      <point x="494" y="516" type="curve"/>
      <point x="500" y="530"/>
      <point x="504" y="547"/>
      <point x="504" y="566" type="curve" smooth="yes"/>
      <point x="504" y="583"/>
      <point x="500" y="601"/>
      <point x="492" y="621" type="curve" smooth="yes"/>
      <point x="484" y="641"/>
      <point x="471" y="659"/>
      <point x="454" y="676" type="curve" smooth="yes"/>
      <point x="437" y="693"/>
      <point x="414" y="707"/>
      <point x="386" y="718" type="curve" smooth="yes"/>
      <point x="358" y="729"/>
      <point x="325" y="736"/>
      <point x="286" y="736" type="curve" smooth="yes"/>
    </contour>
  </outline>
</glyph>
<glyph name="aring" format="1">
  <advance width="520"/>
  <unicode hex="00E5"/>
  <note>
    aring
  </note>
  <outline>
    <contour>
      <point x="477" y="91"/>
      <point x="473" y="92"/>
      <point x="467" y="93" type="curve" smooth="yes"/>
      <point x="461" y="94"/>
      <point x="451" y="96"/>
      <point x="440" y="98" type="curve"/>
      <point x="440" y="325" type="line" smooth="yes"/>
      <point x="440" y="354"/>
      <point x="436" y="381"/>
      <point x="428" y="405" type="curve" smooth="yes"/>
      <point x="420" y="429"/>
      <point x="406" y="450"/>
      <point x="390" y="468" type="curve" smooth="yes"/>
      <point x="374" y="485"/>
      <point x="354" y="499"/>
      <point x="331" y="509" type="curve" smooth="yes"/>
      <point x="307" y="519"/>
      <point x="280" y="524"/>
      <point x="250" y="524" type="curve" smooth="yes"/>
      <point x="167" y="524"/>
      <point x="96" y="496"/>
      <point x="37" y="442" type="curve"/>
      <point x="60" y="403" type="line"/>
      <point x="64" y="397"/>
      <point x="68" y="391"/>
      <point x="74" y="387" type="curve" smooth="yes"/>
      <point x="80" y="383"/>
      <point x="88" y="381"/>
      <point x="96" y="381" type="curve" smooth="yes"/>
      <point x="106" y="381"/>
      <point x="115" y="383"/>
      <point x="123" y="388" type="curve" smooth="yes"/>
      <point x="131" y="393"/>
      <point x="140" y="397"/>
      <point x="150" y="403" type="curve" smooth="yes"/>
      <point x="160" y="409"/>
      <point x="172" y="414"/>
      <point x="185" y="419" type="curve" smooth="yes"/>
      <point x="198" y="424"/>
      <point x="215" y="426"/>
      <point x="235" y="426" type="curve" smooth="yes"/>
      <point x="263" y="426"/>
      <point x="284" y="418"/>
      <point x="298" y="401" type="curve" smooth="yes"/>
      <point x="312" y="384"/>
      <point x="320" y="359"/>
      <point x="320" y="324" type="curve" smooth="yes"/>
      <point x="320" y="294" type="line"/>
      <point x="262" y="294"/>
      <point x="212" y="289"/>
      <point x="173" y="279" type="curve" smooth="yes"/>
      <point x="134" y="269"/>
      <point x="103" y="256"/>
      <point x="79" y="241" type="curve" smooth="yes"/>
      <point x="55" y="226"/>
      <point x="38" y="209"/>
      <point x="28" y="190" type="curve" smooth="yes"/>
      <point x="18" y="171"/>
      <point x="13" y="151"/>
      <point x="13" y="132" type="curve" smooth="yes"/>
      <point x="13" y="109"/>
      <point x="17" y="89"/>
      <point x="24" y="72" type="curve" smooth="yes"/>
      <point x="31" y="55"/>
      <point x="42" y="40"/>
      <point x="55" y="28" type="curve" smooth="yes"/>
      <point x="68" y="16"/>
      <point x="84" y="8"/>
      <point x="102" y="2" type="curve" smooth="yes"/>
      <point x="120" y="-4"/>
      <point x="140" y="-7"/>
      <point x="162" y="-7" type="curve" smooth="yes"/>
      <point x="180" y="-7"/>
      <point x="197" y="-5"/>
      <point x="212" y="-2" type="curve" smooth="yes"/>
      <point x="227" y="1"/>
      <point x="241" y="5"/>
      <point x="254" y="11" type="curve" smooth="yes"/>
      <point x="267" y="17"/>
      <point x="281" y="24"/>
      <point x="293" y="33" type="curve"/>
      <point x="306" y="42"/>
      <point x="318" y="52"/>
      <point x="331" y="64" type="curve"/>
      <point x="342" y="28" type="line" smooth="yes"/>
      <point x="345" y="17"/>
      <point x="350" y="9"/>
      <point x="357" y="6" type="curve"/>
      <point x="364" y="2"/>
      <point x="373" y="1"/>
      <point x="385" y="1" type="curve" smooth="yes"/>
      <point x="427" y="1" type="line"/>
      <point x="440" y="1" type="line"/>
      <point x="503" y="1" type="line"/>
      <point x="503" y="60" type="line" smooth="yes"/>
      <point x="503" y="77"/>
      <point x="495" y="87"/>
      <point x="478" y="91" type="curve"/>
    </contour>
    <contour>
      <point x="320" y="133" type="line"/>
      <point x="311" y="124"/>
      <point x="302" y="116"/>
      <point x="293" y="109" type="curve" smooth="yes"/>
      <point x="284" y="102"/>
      <point x="275" y="97"/>
      <point x="266" y="92" type="curve" smooth="yes"/>
      <point x="257" y="87"/>
      <point x="246" y="83"/>
      <point x="235" y="81" type="curve" smooth="yes"/>
      <point x="224" y="79"/>
      <point x="213" y="78"/>
      <point x="200" y="78" type="curve" smooth="yes"/>
      <point x="179" y="78"/>
      <point x="163" y="83"/>
      <point x="150" y="92" type="curve" smooth="yes"/>
      <point x="137" y="101"/>
      <point x="131" y="117"/>
      <point x="131" y="139" type="curve" smooth="yes"/>
      <point x="131" y="150"/>
      <point x="134" y="161"/>
      <point x="140" y="170" type="curve" smooth="yes"/>
      <point x="146" y="179"/>
      <point x="156" y="187"/>
      <point x="171" y="194" type="curve" smooth="yes"/>
      <point x="186" y="201"/>
      <point x="206" y="207"/>
      <point x="230" y="212" type="curve" smooth="yes"/>
      <point x="254" y="217"/>
      <point x="284" y="219"/>
      <point x="320" y="219" type="curve"/>
    </contour>
    <contour>
      <point x="134" y="648"/>
      <point x="137" y="634"/>
      <point x="143" y="622" type="curve" smooth="yes"/>
      <point x="149" y="610"/>
      <point x="158" y="599"/>
      <point x="168" y="590" type="curve" smooth="yes"/>
      <point x="178" y="581"/>
      <point x="190" y="574"/>
      <point x="203" y="569" type="curve" smooth="yes"/>
      <point x="216" y="564"/>
      <point x="230" y="562"/>
      <point x="245" y="562" type="curve" smooth="yes"/>
      <point x="260" y="562"/>
      <point x="274" y="564"/>
      <point x="288" y="569" type="curve" smooth="yes"/>
      <point x="302" y="574"/>
      <point x="314" y="581"/>
      <point x="324" y="590" type="curve" smooth="yes"/>
      <point x="334" y="599"/>
      <point x="343" y="610"/>
      <point x="349" y="622" type="curve" smooth="yes"/>
      <point x="355" y="634"/>
      <point x="358" y="648"/>
      <point x="358" y="663" type="curve" smooth="yes"/>
      <point x="358" y="678"/>
      <point x="355" y="692"/>
      <point x="349" y="705" type="curve" smooth="yes"/>
      <point x="343" y="718"/>
      <point x="334" y="728"/>
      <point x="324" y="737" type="curve" smooth="yes"/>
      <point x="314" y="746"/>
      <point x="302" y="753"/>
      <point x="288" y="758" type="curve" smooth="yes"/>
      <point x="274" y="763"/>
      <point x="260" y="766"/>
      <point x="245" y="766" type="curve" smooth="yes"/>
      <point x="230" y="766"/>
      <point x="216" y="763"/>
      <point x="203" y="758" type="curve" smooth="yes"/>
      <point x="190" y="753"/>
      <point x="178" y="746"/>
      <point x="168" y="737" type="curve" smooth="yes"/>
      <point x="158" y="728"/>
      <point x="149" y="718"/>
      <point x="143" y="705" type="curve" smooth="yes"/>
      <point x="137" y="692"/>
      <point x="134" y="678"/>
      <point x="134" y="663" type="curve" smooth="yes"/>
    </contour>
    <contour>
      <point x="201" y="677"/>
      <point x="205" y="688"/>
      <point x="213" y="696" type="curve" smooth="yes"/>
      <point x="221" y="704"/>
      <point x="232" y="708"/>
      <point x="247" y="708" type="curve" smooth="yes"/>
      <point x="260" y="708"/>
      <point x="271" y="704"/>
      <point x="279" y="696" type="curve" smooth="yes"/>
      <point x="287" y="688"/>
      <point x="291" y="677"/>
      <point x="291" y="663" type="curve" smooth="yes"/>
      <point x="291" y="650"/>
      <point x="287" y="639"/>
      <point x="279" y="631" type="curve" smooth="yes"/>
      <point x="271" y="623"/>
      <point x="260" y="618"/>
      <point x="247" y="618" type="curve" smooth="yes"/>
      <point x="232" y="618"/>
      <point x="221" y="623"/>
      <point x="213" y="631" type="curve" smooth="yes"/>
      <point x="205" y="639"/>
      <point x="201" y="650"/>
      <point x="201" y="663" type="curve" smooth="yes"/>
    </contour>
  </outline>
</glyph>
<glyph name="lslash" format="1">
  <advance width="319"/>
  <unicode hex="0142"/>
  <note>
    lslash
  </note>
  <outline>
    <contour>
      <point x="286" y="400" type="line"/>
      <point x="297" y="404"/>
      <point x="303" y="413"/>
      <point x="303" y="427" type="curve" smooth="yes"/>
      <point x="303" y="498" type="line"/>
      <point x="221" y="465" type="line"/>
      <point x="221" y="743" type="line"/>
      <point x="98" y="743" type="line"/>
      <point x="22" y="743" type="line"/>
      <point x="22" y="684" type="line" smooth="yes"/>
      <point x="22" y="667"/>
      <point x="30" y="657"/>
      <point x="47" y="653" type="curve"/>
      <point x="49" y="653"/>
      <point x="51" y="652"/>
      <point x="54" y="652" type="curve" smooth="yes"/>
      <point x="57" y="652"/>
      <point x="62" y="650"/>
      <point x="69" y="649" type="curve" smooth="yes"/>
      <point x="76" y="648"/>
      <point x="86" y="646"/>
      <point x="98" y="644" type="curve"/>
      <point x="98" y="421" type="line"/>
      <point x="31" y="393" type="line" smooth="yes"/>
      <point x="21" y="389"/>
      <point x="16" y="381"/>
      <point x="16" y="369" type="curve" smooth="yes"/>
      <point x="16" y="296" type="line"/>
      <point x="98" y="329" type="line"/>
      <point x="98" y="99" type="line"/>
      <point x="86" y="97"/>
      <point x="76" y="95"/>
      <point x="69" y="94" type="curve" smooth="yes"/>
      <point x="62" y="93"/>
      <point x="57" y="92"/>
      <point x="54" y="91" type="curve" smooth="yes"/>
      <point x="51" y="90"/>
      <point x="48" y="90"/>
      <point x="47" y="90" type="curve"/>
      <point x="30" y="86"/>
      <point x="22" y="76"/>
      <point x="22" y="59" type="curve" smooth="yes"/>
      <point x="22" y="0" type="line"/>
      <point x="98" y="0" type="line"/>
      <point x="222" y="0" type="line"/>
      <point x="297" y="0" type="line"/>
      <point x="297" y="59" type="line" smooth="yes"/>
      <point x="297" y="76"/>
      <point x="289" y="86"/>
      <point x="272" y="90" type="curve"/>
      <point x="271" y="90"/>
      <point x="269" y="90"/>
      <point x="266" y="91" type="curve" smooth="yes"/>
      <point x="263" y="92"/>
      <point x="258" y="93"/>
      <point x="251" y="94" type="curve" smooth="yes"/>
      <point x="244" y="95"/>
      <point x="234" y="97"/>
      <point x="222" y="99" type="curve"/>
      <point x="222" y="372" type="line"/>
    </contour>
  </outline>
</glyph>
<glyph name="oe" format="1">
  <advance width="840"/>
  <unicode hex="0153"/>
  <note>
    oe
  </note>
  <outline>
    <contour>
      <point x="578" y="521"/>
      <point x="542" y="512"/>
      <point x="511" y="494" type="curve" smooth="yes"/>
      <point x="480" y="476"/>
      <point x="456" y="452"/>
      <point x="438" y="422" type="curve"/>
      <point x="418" y="454"/>
      <point x="392" y="478"/>
      <point x="361" y="495" type="curve" smooth="yes"/>
      <point x="330" y="512"/>
      <point x="293" y="521"/>
      <point x="252" y="521" type="curve" smooth="yes"/>
      <point x="217" y="521"/>
      <point x="185" y="514"/>
      <point x="156" y="502" type="curve" smooth="yes"/>
      <point x="127" y="490"/>
      <point x="102" y="473"/>
      <point x="81" y="450" type="curve" smooth="yes"/>
      <point x="60" y="427"/>
      <point x="44" y="400"/>
      <point x="32" y="367" type="curve" smooth="yes"/>
      <point x="20" y="334"/>
      <point x="15" y="298"/>
      <point x="15" y="258" type="curve" smooth="yes"/>
      <point x="15" y="217"/>
      <point x="20" y="181"/>
      <point x="32" y="148" type="curve" smooth="yes"/>
      <point x="44" y="115"/>
      <point x="59" y="87"/>
      <point x="80" y="64" type="curve" smooth="yes"/>
      <point x="101" y="41"/>
      <point x="126" y="23"/>
      <point x="154" y="11" type="curve" smooth="yes"/>
      <point x="182" y="-1"/>
      <point x="214" y="-7"/>
      <point x="248" y="-7" type="curve" smooth="yes"/>
      <point x="291" y="-7"/>
      <point x="328" y="2"/>
      <point x="360" y="19" type="curve" smooth="yes"/>
      <point x="392" y="36"/>
      <point x="418" y="61"/>
      <point x="438" y="93" type="curve"/>
      <point x="458" y="58"/>
      <point x="484" y="33"/>
      <point x="516" y="17" type="curve" smooth="yes"/>
      <point x="548" y="1"/>
      <point x="582" y="-7"/>
      <point x="618" y="-7" type="curve" smooth="yes"/>
      <point x="635" y="-7"/>
      <point x="653" y="-6"/>
      <point x="671" y="-3" type="curve" smooth="yes"/>
      <point x="689" y="0"/>
      <point x="707" y="4"/>
      <point x="725" y="10" type="curve" smooth="yes"/>
      <point x="743" y="16"/>
      <point x="760" y="25"/>
      <point x="776" y="36" type="curve" smooth="yes"/>
      <point x="792" y="47"/>
      <point x="808" y="61"/>
      <point x="822" y="77" type="curve"/>
      <point x="786" y="122" type="line" smooth="yes"/>
      <point x="780" y="130"/>
      <point x="773" y="133"/>
      <point x="764" y="133" type="curve" smooth="yes"/>
      <point x="756" y="133"/>
      <point x="748" y="131"/>
      <point x="740" y="126" type="curve" smooth="yes"/>
      <point x="732" y="121"/>
      <point x="723" y="117"/>
      <point x="713" y="111" type="curve" smooth="yes"/>
      <point x="703" y="105"/>
      <point x="691" y="100"/>
      <point x="678" y="95" type="curve" smooth="yes"/>
      <point x="665" y="90"/>
      <point x="649" y="88"/>
      <point x="630" y="88" type="curve" smooth="yes"/>
      <point x="593" y="88"/>
      <point x="563" y="100"/>
      <point x="540" y="123" type="curve" smooth="yes"/>
      <point x="517" y="146"/>
      <point x="503" y="182"/>
      <point x="498" y="231" type="curve"/>
      <point x="797" y="231" type="line" smooth="yes"/>
      <point x="803" y="231"/>
      <point x="807" y="231"/>
      <point x="811" y="233" type="curve" smooth="yes"/>
      <point x="815" y="235"/>
      <point x="817" y="237"/>
      <point x="819" y="241" type="curve" smooth="yes"/>
      <point x="821" y="245"/>
      <point x="822" y="249"/>
      <point x="823" y="255" type="curve" smooth="yes"/>
      <point x="824" y="261"/>
      <point x="824" y="270"/>
      <point x="824" y="279" type="curve" smooth="yes"/>
      <point x="824" y="316"/>
      <point x="819" y="350"/>
      <point x="809" y="380" type="curve" smooth="yes"/>
      <point x="799" y="410"/>
      <point x="784" y="435"/>
      <point x="766" y="456" type="curve" smooth="yes"/>
      <point x="748" y="477"/>
      <point x="727" y="493"/>
      <point x="702" y="504" type="curve" smooth="yes"/>
      <point x="677" y="515"/>
      <point x="649" y="521"/>
      <point x="620" y="521" type="curve" smooth="yes"/>
    </contour>
    <contour>
      <point x="220" y="88"/>
      <point x="190" y="102"/>
      <point x="171" y="131" type="curve" smooth="yes"/>
      <point x="152" y="160"/>
      <point x="142" y="202"/>
      <point x="142" y="257" type="curve" smooth="yes"/>
      <point x="142" y="312"/>
      <point x="152" y="354"/>
      <point x="171" y="383" type="curve" smooth="yes"/>
      <point x="190" y="412"/>
      <point x="219" y="427"/>
      <point x="259" y="427" type="curve" smooth="yes"/>
      <point x="298" y="427"/>
      <point x="328" y="412"/>
      <point x="347" y="383" type="curve" smooth="yes"/>
      <point x="366" y="354"/>
      <point x="375" y="312"/>
      <point x="375" y="257" type="curve" smooth="yes"/>
      <point x="375" y="202"/>
      <point x="366" y="160"/>
      <point x="347" y="131" type="curve" smooth="yes"/>
      <point x="328" y="102"/>
      <point x="299" y="88"/>
      <point x="260" y="88" type="curve" smooth="yes"/>
    </contour>
    <contour>
      <point x="632" y="433"/>
      <point x="647" y="429"/>
      <point x="660" y="422" type="curve" smooth="yes"/>
      <point x="673" y="415"/>
      <point x="683" y="406"/>
      <point x="691" y="394" type="curve" smooth="yes"/>
      <point x="699" y="382"/>
      <point x="705" y="368"/>
      <point x="709" y="353" type="curve" smooth="yes"/>
      <point x="713" y="338"/>
      <point x="715" y="322"/>
      <point x="715" y="306" type="curve"/>
      <point x="498" y="306" type="line"/>
      <point x="502" y="346"/>
      <point x="515" y="377"/>
      <point x="534" y="399" type="curve" smooth="yes"/>
      <point x="553" y="421"/>
      <point x="580" y="433"/>
      <point x="615" y="433" type="curve" smooth="yes"/>
    </contour>
  </outline>
</glyph>
<glyph name="Zacute" format="1">
  <advance width="592"/>
  <unicode hex="0179"/>
  <note>
    Zacute
  </note>
  <outline>
    <contour>
      <point x="562" y="631" type="line" smooth="yes"/>
      <point x="571" y="644"/>
      <point x="575" y="658"/>
      <point x="575" y="673" type="curve" smooth="yes"/>
      <point x="575" y="723" type="line"/>
      <point x="40" y="723" type="line"/>
      <point x="41" y="526" type="line"/>
      <point x="94" y="526" type="line" smooth="yes"/>
      <point x="107" y="526"/>
      <point x="114" y="533"/>
      <point x="117" y="545" type="curve"/>
      <point x="117" y="548"/>
      <point x="121" y="571"/>
      <point x="126" y="616" type="curve"/>
      <point x="401" y="616" type="line"/>
      <point x="29" y="90" type="line"/>
      <point x="25" y="85"/>
      <point x="22" y="78"/>
      <point x="20" y="72" type="curve" smooth="yes"/>
      <point x="18" y="66"/>
      <point x="17" y="60"/>
      <point x="17" y="53" type="curve" smooth="yes"/>
      <point x="17" y="0" type="line"/>
      <point x="566" y="0" type="line"/>
      <point x="566" y="107" type="line"/>
      <point x="566" y="195" type="line"/>
      <point x="513" y="195" type="line" smooth="yes"/>
      <point x="500" y="195"/>
      <point x="493" y="188"/>
      <point x="490" y="176" type="curve"/>
      <point x="490" y="173"/>
      <point x="486" y="150"/>
      <point x="481" y="107" type="curve"/>
      <point x="191" y="107" type="line"/>
    </contour>
    <contour>
      <point x="502" y="896" type="line"/>
      <point x="364" y="896" type="line" smooth="yes"/>
      <point x="357" y="896"/>
      <point x="353" y="895"/>
      <point x="348" y="895" type="curve" smooth="yes"/>
      <point x="343" y="895"/>
      <point x="339" y="894"/>
      <point x="335" y="892" type="curve"/>
      <point x="331" y="891"/>
      <point x="328" y="889"/>
      <point x="324" y="886" type="curve" smooth="yes"/>
      <point x="320" y="883"/>
      <point x="317" y="880"/>
      <point x="313" y="876" type="curve" smooth="yes"/>
      <point x="215" y="774" type="line"/>
      <point x="312" y="774" type="line" smooth="yes"/>
      <point x="317" y="774"/>
      <point x="320" y="775"/>
      <point x="324" y="775" type="curve" smooth="yes"/>
      <point x="327" y="775"/>
      <point x="331" y="776"/>
      <point x="334" y="777" type="curve" smooth="yes"/>
      <point x="337" y="778"/>
      <point x="341" y="779"/>
      <point x="344" y="781" type="curve" smooth="yes"/>
      <point x="347" y="783"/>
      <point x="350" y="785"/>
      <point x="354" y="788" type="curve" smooth="yes"/>
    </contour>
  </outline>
</glyph>
<glyph name="florin" format="1">
  <advance width="492"/>
  <unicode hex="0192"/>
  <note>
    florin
  </note>
  <outline>
    <contour>
      <point x="315" y="372" type="line"/>
      <point x="470" y="372" type="line"/>
      <point x="470" y="460" type="line"/>
      <point x="323" y="460" type="line"/>
      <point x="333" y="531" type="line"/>
      <point x="335" y="550"/>
      <point x="339" y="565"/>
      <point x="345" y="578" type="curve" smooth="yes"/>
      <point x="351" y="591"/>
      <point x="359" y="602"/>
      <point x="368" y="610" type="curve" smooth="yes"/>
      <point x="377" y="618"/>
      <point x="386" y="624"/>
      <point x="398" y="628" type="curve" smooth="yes"/>
      <point x="409" y="632"/>
      <point x="422" y="633"/>
      <point x="436" y="633" type="curve" smooth="yes"/>
      <point x="450" y="633"/>
      <point x="460" y="636"/>
      <point x="466" y="641" type="curve" smooth="yes"/>
      <point x="472" y="646"/>
      <point x="475" y="655"/>
      <point x="475" y="668" type="curve" smooth="yes"/>
      <point x="475" y="736" type="line"/>
      <point x="393" y="736"/>
      <point x="330" y="719"/>
      <point x="288" y="685" type="curve" smooth="yes"/>
      <point x="246" y="651"/>
      <point x="220" y="601"/>
      <point x="212" y="534" type="curve" smooth="yes"/>
      <point x="204" y="460" type="line"/>
      <point x="103" y="460" type="line"/>
      <point x="103" y="410" type="line" smooth="yes"/>
      <point x="103" y="393"/>
      <point x="112" y="383"/>
      <point x="131" y="379" type="curve"/>
      <point x="192" y="370" type="line"/>
      <point x="151" y="32" type="line" smooth="yes"/>
      <point x="149" y="13"/>
      <point x="145" y="-3"/>
      <point x="139" y="-16" type="curve" smooth="yes"/>
      <point x="133" y="-29"/>
      <point x="127" y="-39"/>
      <point x="118" y="-47" type="curve" smooth="yes"/>
      <point x="109" y="-55"/>
      <point x="99" y="-60"/>
      <point x="88" y="-64" type="curve" smooth="yes"/>
      <point x="77" y="-68"/>
      <point x="63" y="-70"/>
      <point x="50" y="-70" type="curve" smooth="yes"/>
      <point x="24" y="-70"/>
      <point x="11" y="-83"/>
      <point x="11" y="-108" type="curve" smooth="yes"/>
      <point x="11" y="-172" type="line"/>
      <point x="52" y="-172"/>
      <point x="88" y="-169"/>
      <point x="119" y="-161" type="curve" smooth="yes"/>
      <point x="150" y="-153"/>
      <point x="175" y="-141"/>
      <point x="197" y="-125" type="curve" smooth="yes"/>
      <point x="219" y="-109"/>
      <point x="236" y="-87"/>
      <point x="248" y="-62" type="curve" smooth="yes"/>
      <point x="260" y="-37"/>
      <point x="270" y="-6"/>
      <point x="274" y="29" type="curve" smooth="yes"/>
    </contour>
  </outline>
</glyph>
<glyph name="circumflex" format="1">
  <advance width="389"/>
  <unicode hex="02C6"/>
  <note>
    circumflex
  </note>
  <outline>
    <contour>
      <point x="367" y="584" type="line"/>
      <point x="252" y="723" type="line"/>
      <point x="136" y="723" type="line"/>
      <point x="22" y="584" type="line"/>
      <point x="108" y="584" type="line" smooth="yes"/>
      <point x="113" y="584"/>
      <point x="118" y="585"/>
      <point x="122" y="587" type="curve" smooth="yes"/>
      <point x="126" y="589"/>
      <point x="129" y="591"/>
      <point x="132" y="593" type="curve"/>
      <point x="186" y="640" type="line"/>
      <point x="188" y="642"/>
      <point x="189" y="644"/>
      <point x="191" y="646" type="curve" smooth="yes"/>
      <point x="193" y="648"/>
      <point x="194" y="650"/>
      <point x="196" y="652" type="curve"/>
      <point x="202" y="646" type="line" smooth="yes"/>
      <point x="204" y="644"/>
      <point x="205" y="642"/>
      <point x="207" y="640" type="curve"/>
      <point x="260" y="593" type="line"/>
      <point x="266" y="587"/>
      <point x="274" y="584"/>
      <point x="284" y="584" type="curve" smooth="yes"/>
    </contour>
  </outline>
</glyph>
<glyph name="dotaccentcomb" format="1">
  <advance width="205"/>
  <unicode hex="0307"/>
  <outline>
    <component base="dotaccent"/>
    <contour>
      <point x="103" y="744" type="move" name="top"/>
    </contour>
    <contour>
      <point x="103" y="513" type="move" name="_top"/>
    </contour>
  </outline>
</glyph>
<glyph name="caroncomb" format="1">
  <advance width="390"/>
  <unicode hex="030C"/>
  <outline>
    <component base="caron"/>
    <contour>
      <point x="195" y="723" type="move" name="top"/>
    </contour>
    <contour>
      <point x="195" y="513" type="move" name="_top"/>
    </contour>
  </outline>
</glyph>
<glyph name="commaturnedabovecomb" format="1">
  <advance width="198"/>
  <unicode hex="0312"/>
  <outline>
    <component base="comma" xOffset="199" yOffset="691" xScale="-1" yScale="-1"/>
    <contour>
      <point x="100" y="833" type="move" name="top"/>
    </contour>
    <contour>
      <point x="100" y="513" type="move" name="_top"/>
    </contour>
  </outline>
</glyph>
<glyph name="ogonekcomb" format="1">
  <advance width="247"/>
  <unicode hex="0328"/>
  <outline>
    <component base="ogonek"/>
    <contour>
      <point x="222" y="10" type="move" name="_ogonek"/>
    </contour>
  </outline>
</glyph>
<glyph name="emdash" format="1">
  <advance width="735"/>
  <unicode hex="2014"/>
  <note>
    emdash
  </note>
  <outline>
    <contour>
      <point x="28" y="344" type="line"/>
      <point x="28" y="256" type="line"/>
      <point x="707" y="256" type="line"/>
      <point x="707" y="344" type="line"/>
    </contour>
  </outline>
</glyph>
<glyph name="quotedblbase" format="1">
  <advance width="359"/>
  <unicode hex="201E"/>
  <note>
    quotedblbase
  </note>
  <outline>
    <contour>
      <point x="60" y="116" type="line"/>
      <point x="48" y="112"/>
      <point x="42" y="105"/>
      <point x="42" y="94" type="curve" smooth="yes"/>
      <point x="42" y="89"/>
      <point x="43" y="84"/>
      <point x="46" y="80" type="curve"/>
      <point x="55" y="66"/>
      <point x="60" y="53"/>
      <point x="64" y="40" type="curve" smooth="yes"/>
      <point x="68" y="27"/>
      <point x="70" y="14"/>
      <point x="70" y="3" type="curve" smooth="yes"/>
      <point x="70" y="-8"/>
      <point x="68" y="-18"/>
      <point x="66" y="-27" type="curve" smooth="yes"/>
      <point x="64" y="-36"/>
      <point x="60" y="-45"/>
      <point x="56" y="-53" type="curve" smooth="yes"/>
      <point x="52" y="-61"/>
      <point x="48" y="-68"/>
      <point x="43" y="-74" type="curve" smooth="yes"/>
      <point x="38" y="-80"/>
      <point x="34" y="-86"/>
      <point x="30" y="-91" type="curve"/>
      <point x="26" y="-95"/>
      <point x="23" y="-101"/>
      <point x="23" y="-107" type="curve" smooth="yes"/>
      <point x="23" y="-110"/>
      <point x="24" y="-112"/>
      <point x="25" y="-115" type="curve" smooth="yes"/>
      <point x="26" y="-118"/>
      <point x="29" y="-120"/>
      <point x="32" y="-122" type="curve" smooth="yes"/>
      <point x="70" y="-146" type="line"/>
      <point x="102" y="-120"/>
      <point x="126" y="-92"/>
      <point x="143" y="-62" type="curve" smooth="yes"/>
      <point x="160" y="-32"/>
      <point x="168" y="1"/>
      <point x="168" y="34" type="curve" smooth="yes"/>
      <point x="168" y="53"/>
      <point x="166" y="71"/>
      <point x="160" y="90" type="curve" smooth="yes"/>
      <point x="154" y="109"/>
      <point x="146" y="127"/>
      <point x="134" y="146" type="curve"/>
    </contour>
    <contour>
      <point x="226" y="116" type="line"/>
      <point x="214" y="112"/>
      <point x="208" y="105"/>
      <point x="208" y="94" type="curve" smooth="yes"/>
      <point x="208" y="89"/>
      <point x="209" y="84"/>
      <point x="212" y="80" type="curve"/>
      <point x="221" y="66"/>
      <point x="226" y="53"/>
      <point x="230" y="40" type="curve" smooth="yes"/>
      <point x="234" y="27"/>
      <point x="236" y="14"/>
      <point x="236" y="3" type="curve" smooth="yes"/>
      <point x="236" y="-8"/>
      <point x="234" y="-18"/>
      <point x="232" y="-27" type="curve" smooth="yes"/>
      <point x="230" y="-36"/>
      <point x="226" y="-45"/>
      <point x="222" y="-53" type="curve" smooth="yes"/>
      <point x="218" y="-61"/>
      <point x="214" y="-68"/>
      <point x="209" y="-74" type="curve" smooth="yes"/>
      <point x="204" y="-80"/>
      <point x="199" y="-86"/>
      <point x="195" y="-91" type="curve"/>
      <point x="191" y="-95"/>
      <point x="189" y="-101"/>
      <point x="189" y="-107" type="curve" smooth="yes"/>
      <point x="189" y="-110"/>
      <point x="190" y="-112"/>
      <point x="191" y="-115" type="curve" smooth="yes"/>
      <point x="192" y="-118"/>
      <point x="195" y="-121"/>
      <point x="198" y="-123" type="curve"/>
      <point x="236" y="-146" type="line"/>
      <point x="268" y="-120"/>
      <point x="292" y="-92"/>
      <point x="309" y="-62" type="curve" smooth="yes"/>
      <point x="326" y="-32"/>
      <point x="334" y="0"/>
      <point x="334" y="33" type="curve" smooth="yes"/>
      <point x="334" y="52"/>
      <point x="332" y="70"/>
      <point x="326" y="89" type="curve" smooth="yes"/>
      <point x="320" y="108"/>
      <point x="312" y="126"/>
      <point x="300" y="145" type="curve"/>
    </contour>
  </outline>
</glyph>
<glyph name="bullet" format="1">
  <advance width="480"/>
  <unicode hex="2022"/>
  <note>
    bullet
  </note>
  <outline>
    <contour>
      <point x="22" y="266"/>
      <point x="27" y="239"/>
      <point x="39" y="213" type="curve" smooth="yes"/>
      <point x="51" y="187"/>
      <point x="66" y="164"/>
      <point x="86" y="144" type="curve" smooth="yes"/>
      <point x="106" y="124"/>
      <point x="129" y="109"/>
      <point x="155" y="98" type="curve" smooth="yes"/>
      <point x="181" y="87"/>
      <point x="210" y="81"/>
      <point x="240" y="81" type="curve" smooth="yes"/>
      <point x="270" y="81"/>
      <point x="297" y="87"/>
      <point x="324" y="98" type="curve" smooth="yes"/>
      <point x="351" y="109"/>
      <point x="374" y="124"/>
      <point x="394" y="144" type="curve" smooth="yes"/>
      <point x="414" y="164"/>
      <point x="429" y="187"/>
      <point x="441" y="213" type="curve" smooth="yes"/>
      <point x="453" y="239"/>
      <point x="458" y="266"/>
      <point x="458" y="296" type="curve" smooth="yes"/>
      <point x="458" y="326"/>
      <point x="453" y="355"/>
      <point x="441" y="381" type="curve" smooth="yes"/>
      <point x="429" y="407"/>
      <point x="414" y="430"/>
      <point x="394" y="450" type="curve" smooth="yes"/>
      <point x="374" y="470"/>
      <point x="352" y="486"/>
      <point x="325" y="497" type="curve" smooth="yes"/>
      <point x="298" y="508"/>
      <point x="270" y="514"/>
      <point x="240" y="514" type="curve" smooth="yes"/>
      <point x="210" y="514"/>
      <point x="181" y="508"/>
      <point x="155" y="497" type="curve" smooth="yes"/>
      <point x="129" y="486"/>
      <point x="106" y="470"/>
      <point x="86" y="450" type="curve" smooth="yes"/>
      <point x="66" y="430"/>
      <point x="51" y="407"/>
      <point x="39" y="381" type="curve" smooth="yes"/>
      <point x="27" y="355"/>
      <point x="22" y="326"/>
      <point x="22" y="296" type="curve" smooth="yes"/>
    </contour>
  </outline>
</glyph>
<glyph name="Euro" format="1">
  <advance width="587"/>
  <unicode hex="20AC"/>
  <note>
    Euro
  </note>
  <outline>
    <contour>
      <point x="20" y="464" type="line"/>
      <point x="20" y="395" type="line"/>
      <point x="78" y="395" type="line"/>
      <point x="78" y="378" type="line"/>
      <point x="78" y="362" type="line"/>
      <point x="78" y="350" type="line"/>
      <point x="78" y="338" type="line"/>
      <point x="20" y="338" type="line"/>
      <point x="20" y="270" type="line"/>
      <point x="84" y="270" type="line"/>
      <point x="90" y="228"/>
      <point x="99" y="190"/>
      <point x="114" y="156" type="curve" smooth="yes"/>
      <point x="129" y="122"/>
      <point x="148" y="92"/>
      <point x="171" y="68" type="curve" smooth="yes"/>
      <point x="194" y="44"/>
      <point x="221" y="26"/>
      <point x="252" y="13" type="curve" smooth="yes"/>
      <point x="283" y="0"/>
      <point x="319" y="-7"/>
      <point x="358" y="-7" type="curve" smooth="yes"/>
      <point x="406" y="-7"/>
      <point x="447" y="3"/>
      <point x="483" y="22" type="curve" smooth="yes"/>
      <point x="519" y="41"/>
      <point x="549" y="68"/>
      <point x="572" y="104" type="curve"/>
      <point x="518" y="154" type="line"/>
      <point x="515" y="157"/>
      <point x="513" y="159"/>
      <point x="510" y="160" type="curve" smooth="yes"/>
      <point x="507" y="161"/>
      <point x="504" y="162"/>
      <point x="500" y="162" type="curve" smooth="yes"/>
      <point x="493" y="162"/>
      <point x="486" y="158"/>
      <point x="480" y="152" type="curve" smooth="yes"/>
      <point x="474" y="146"/>
      <point x="466" y="138"/>
      <point x="457" y="130" type="curve" smooth="yes"/>
      <point x="448" y="122"/>
      <point x="436" y="115"/>
      <point x="422" y="109" type="curve" smooth="yes"/>
      <point x="408" y="103"/>
      <point x="388" y="99"/>
      <point x="364" y="99" type="curve" smooth="yes"/>
      <point x="325" y="99"/>
      <point x="291" y="113"/>
      <point x="265" y="141" type="curve" smooth="yes"/>
      <point x="239" y="169"/>
      <point x="221" y="213"/>
      <point x="212" y="270" type="curve"/>
      <point x="384" y="270" type="line" smooth="yes"/>
      <point x="394" y="270"/>
      <point x="402" y="273"/>
      <point x="408" y="279" type="curve" smooth="yes"/>
      <point x="414" y="285"/>
      <point x="418" y="292"/>
      <point x="418" y="300" type="curve" smooth="yes"/>
      <point x="418" y="338" type="line"/>
      <point x="206" y="338" type="line"/>
      <point x="206" y="342"/>
      <point x="205" y="346"/>
      <point x="205" y="350" type="curve" smooth="yes"/>
      <point x="205" y="362" type="line"/>
      <point x="205" y="378" type="line" smooth="yes"/>
      <point x="205" y="383"/>
      <point x="206" y="389"/>
      <point x="206" y="395" type="curve"/>
      <point x="431" y="395" type="line" smooth="yes"/>
      <point x="442" y="395"/>
      <point x="450" y="399"/>
      <point x="456" y="405" type="curve" smooth="yes"/>
      <point x="462" y="411"/>
      <point x="465" y="418"/>
      <point x="465" y="426" type="curve" smooth="yes"/>
      <point x="465" y="464" type="line"/>
      <point x="214" y="464" type="line"/>
      <point x="225" y="517"/>
      <point x="244" y="557"/>
      <point x="271" y="584" type="curve" smooth="yes"/>
      <point x="298" y="611"/>
      <point x="331" y="624"/>
      <point x="370" y="624" type="curve" smooth="yes"/>
      <point x="385" y="624"/>
      <point x="397" y="623"/>
      <point x="408" y="620" type="curve" smooth="yes"/>
      <point x="419" y="617"/>
      <point x="428" y="614"/>
      <point x="436" y="610" type="curve" smooth="yes"/>
      <point x="444" y="606"/>
      <point x="450" y="602"/>
      <point x="456" y="597" type="curve" smooth="yes"/>
      <point x="462" y="592"/>
      <point x="467" y="588"/>
      <point x="472" y="584" type="curve" smooth="yes"/>
      <point x="477" y="580"/>
      <point x="480" y="577"/>
      <point x="484" y="574" type="curve" smooth="yes"/>
      <point x="488" y="571"/>
      <point x="492" y="570"/>
      <point x="497" y="570" type="curve" smooth="yes"/>
      <point x="504" y="570"/>
      <point x="508" y="571"/>
      <point x="512" y="574" type="curve" smooth="yes"/>
      <point x="516" y="577"/>
      <point x="520" y="580"/>
      <point x="523" y="584" type="curve"/>
      <point x="566" y="631" type="line"/>
      <point x="544" y="661"/>
      <point x="517" y="685"/>
      <point x="484" y="703" type="curve" smooth="yes"/>
      <point x="451" y="721"/>
      <point x="411" y="730"/>
      <point x="365" y="730" type="curve" smooth="yes"/>
      <point x="329" y="730"/>
      <point x="296" y="723"/>
      <point x="266" y="711" type="curve" smooth="yes"/>
      <point x="236" y="699"/>
      <point x="208" y="681"/>
      <point x="184" y="658" type="curve" smooth="yes"/>
      <point x="160" y="635"/>
      <point x="140" y="607"/>
      <point x="123" y="574" type="curve" smooth="yes"/>
      <point x="106" y="541"/>
      <point x="95" y="505"/>
      <point x="87" y="464" type="curve"/>
    </contour>
  </outline>
</glyph>
<glyph name="lessequal" format="1">
  <advance width="442"/>
  <unicode hex="2264"/>
  <note>
    lessequal
  </note>
  <outline>
    <contour>
      <point x="22" y="420" type="line"/>
      <point x="22" y="370" type="line"/>
      <point x="418" y="179" type="line"/>
      <point x="418" y="263" type="line" smooth="yes"/>
      <point x="418" y="270"/>
      <point x="416" y="276"/>
      <point x="412" y="282" type="curve" smooth="yes"/>
      <point x="408" y="288"/>
      <point x="401" y="293"/>
      <point x="390" y="298" type="curve" smooth="yes"/>
      <point x="214" y="378" type="line"/>
      <point x="206" y="382"/>
      <point x="198" y="384"/>
      <point x="188" y="387" type="curve" smooth="yes"/>
      <point x="178" y="390"/>
      <point x="169" y="393"/>
      <point x="158" y="395" type="curve"/>
      <point x="169" y="397"/>
      <point x="179" y="400"/>
      <point x="188" y="402" type="curve" smooth="yes"/>
      <point x="197" y="404"/>
      <point x="205" y="407"/>
      <point x="214" y="411" type="curve" smooth="yes"/>
      <point x="390" y="490" type="line" smooth="yes"/>
      <point x="401" y="495"/>
      <point x="408" y="500"/>
      <point x="412" y="506" type="curve" smooth="yes"/>
      <point x="416" y="512"/>
      <point x="418" y="518"/>
      <point x="418" y="525" type="curve" smooth="yes"/>
      <point x="418" y="609" type="line"/>
    </contour>
    <contour>
      <point x="22" y="131" type="line"/>
      <point x="22" y="40" type="line"/>
      <point x="418" y="40" type="line"/>
      <point x="418" y="131" type="line"/>
    </contour>
  </outline>
</glyph>
<glyph name="undercommaaccent" format="1">
  <advance width="186"/>
  <note>
    undercommaaccent
  </note>
  <outline>
    <contour>
      <point x="58" y="-36" type="line"/>
      <point x="32" y="-178" type="line"/>
      <point x="76" y="-178" type="line" smooth="yes"/>
      <point x="87" y="-178"/>
      <point x="95" y="-177"/>
      <point x="102" y="-174" type="curve" smooth="yes"/>
      <point x="109" y="-171"/>
      <point x="114" y="-165"/>
      <point x="119" y="-155" type="curve" smooth="yes"/>
      <point x="127" y="-138"/>
      <point x="134" y="-125"/>
      <point x="138" y="-113" type="curve" smooth="yes"/>
      <point x="142" y="-101"/>
      <point x="146" y="-92"/>
      <point x="148" y="-84" type="curve" smooth="yes"/>
      <point x="150" y="-76"/>
      <point x="151" y="-70"/>
      <point x="152" y="-66" type="curve" smooth="yes"/>
      <point x="153" y="-62"/>
      <point x="153" y="-58"/>
      <point x="153" y="-55" type="curve" smooth="yes"/>
      <point x="153" y="-51"/>
      <point x="152" y="-46"/>
      <point x="150" y="-42" type="curve" smooth="yes"/>
      <point x="148" y="-38"/>
      <point x="142" y="-36"/>
      <point x="133" y="-36" type="curve" smooth="yes"/>
    </contour>
  </outline>
</glyph>
